  0
SECTION
  2
BLOCKS
  0
ENDSEC
  0
SECTION
  2
ENTITIES
  0
LINE
  8
0
 10
180.1
 20
296.92
 11
180.1
 21
310.1
  0
LINE
  8
0
 10
180.1
 20
310.1
 11
179.408
 21
310.1
  0
LINE
  8
0
 10
179.408
 20
310.1
 11
178.808
 21
310.2
  0
LINE
  8
0
 10
178.808
 20
310.2
 11
178.192
 21
310.2
  0
LINE
  8
0
 10
178.192
 20
310.2
 11
177.592
 21
310.1
  0
LINE
  8
0
 10
177.592
 20
310.1
 11
177.1
 21
310.1
  0
LINE
  8
0
 10
177.1
 20
310.1
 11
177.1
 21
317.9
  0
LINE
  8
0
 10
177.1
 20
317.9
 11
177.592
 21
317.9
  0
LINE
  8
0
 10
177.592
 20
317.9
 11
178.192
 21
317.8
  0
LINE
  8
0
 10
178.192
 20
317.8
 11
178.808
 21
317.8
  0
LINE
  8
0
 10
178.808
 20
317.8
 11
179.408
 21
317.9
  0
LINE
  8
0
 10
179.408
 20
317.9
 11
180.1
 21
317.9
  0
LINE
  8
0
 10
180.1
 20
317.9
 11
180.1
 21
334.1
  0
LINE
  8
0
 10
180.1
 20
334.1
 11
165.9
 21
334.1
  0
LINE
  8
0
 10
165.9
 20
334.1
 11
165.9
 21
333.408
  0
LINE
  8
0
 10
165.9
 20
333.408
 11
165.8
 21
332.808
  0
LINE
  8
0
 10
165.8
 20
332.808
 11
165.8
 21
332.192
  0
LINE
  8
0
 10
165.8
 20
332.192
 11
165.9
 21
331.592
  0
LINE
  8
0
 10
165.9
 20
331.592
 11
165.9
 21
331.1
  0
LINE
  8
0
 10
165.9
 20
331.1
 11
158.1
 21
331.1
  0
LINE
  8
0
 10
158.1
 20
331.1
 11
158.1
 21
331.592
  0
LINE
  8
0
 10
158.1
 20
331.592
 11
158.2
 21
332.192
  0
LINE
  8
0
 10
158.2
 20
332.192
 11
158.2
 21
332.808
  0
LINE
  8
0
 10
158.2
 20
332.808
 11
158.1
 21
333.408
  0
LINE
  8
0
 10
158.1
 20
333.408
 11
158.1
 21
334.1
  0
LINE
  8
0
 10
158.1
 20
334.1
 11
149.9
 21
334.1
  0
LINE
  8
0
 10
149.9
 20
334.1
 11
149.9
 21
333.408
  0
LINE
  8
0
 10
149.9
 20
333.408
 11
149.8
 21
332.808
  0
LINE
  8
0
 10
149.8
 20
332.808
 11
149.8
 21
332.192
  0
LINE
  8
0
 10
149.8
 20
332.192
 11
149.9
 21
331.592
  0
LINE
  8
0
 10
149.9
 20
331.592
 11
149.9
 21
331.1
  0
LINE
  8
0
 10
149.9
 20
331.1
 11
142.1
 21
331.1
  0
LINE
  8
0
 10
142.1
 20
331.1
 11
142.1
 21
331.592
  0
LINE
  8
0
 10
142.1
 20
331.592
 11
142.2
 21
332.192
  0
LINE
  8
0
 10
142.2
 20
332.192
 11
142.2
 21
332.808
  0
LINE
  8
0
 10
142.2
 20
332.808
 11
142.1
 21
333.408
  0
LINE
  8
0
 10
142.1
 20
333.408
 11
142.1
 21
334.1
  0
LINE
  8
0
 10
142.1
 20
334.1
 11
133.9
 21
334.1
  0
LINE
  8
0
 10
133.9
 20
334.1
 11
133.9
 21
333.408
  0
LINE
  8
0
 10
133.9
 20
333.408
 11
133.8
 21
332.808
  0
LINE
  8
0
 10
133.8
 20
332.808
 11
133.8
 21
332.192
  0
LINE
  8
0
 10
133.8
 20
332.192
 11
133.9
 21
331.592
  0
LINE
  8
0
 10
133.9
 20
331.592
 11
133.9
 21
331.1
  0
LINE
  8
0
 10
133.9
 20
331.1
 11
126.1
 21
331.1
  0
LINE
  8
0
 10
126.1
 20
331.1
 11
126.1
 21
331.592
  0
LINE
  8
0
 10
126.1
 20
331.592
 11
126.2
 21
332.192
  0
LINE
  8
0
 10
126.2
 20
332.192
 11
126.2
 21
332.808
  0
LINE
  8
0
 10
126.2
 20
332.808
 11
126.1
 21
333.408
  0
LINE
  8
0
 10
126.1
 20
333.408
 11
126.1
 21
334.1
  0
LINE
  8
0
 10
126.1
 20
334.1
 11
117.9
 21
334.1
  0
LINE
  8
0
 10
117.9
 20
334.1
 11
117.9
 21
333.408
  0
LINE
  8
0
 10
117.9
 20
333.408
 11
117.8
 21
332.808
  0
LINE
  8
0
 10
117.8
 20
332.808
 11
117.8
 21
332.192
  0
LINE
  8
0
 10
117.8
 20
332.192
 11
117.9
 21
331.592
  0
LINE
  8
0
 10
117.9
 20
331.592
 11
117.9
 21
331.1
  0
LINE
  8
0
 10
117.9
 20
331.1
 11
110.1
 21
331.1
  0
LINE
  8
0
 10
110.1
 20
331.1
 11
110.1
 21
331.592
  0
LINE
  8
0
 10
110.1
 20
331.592
 11
110.2
 21
332.192
  0
LINE
  8
0
 10
110.2
 20
332.192
 11
110.2
 21
332.808
  0
LINE
  8
0
 10
110.2
 20
332.808
 11
110.1
 21
333.408
  0
LINE
  8
0
 10
110.1
 20
333.408
 11
110.1
 21
334.1
  0
LINE
  8
0
 10
110.1
 20
334.1
 11
101.9
 21
334.1
  0
LINE
  8
0
 10
101.9
 20
334.1
 11
101.9
 21
333.408
  0
LINE
  8
0
 10
101.9
 20
333.408
 11
101.8
 21
332.808
  0
LINE
  8
0
 10
101.8
 20
332.808
 11
101.8
 21
332.192
  0
LINE
  8
0
 10
101.8
 20
332.192
 11
101.9
 21
331.592
  0
LINE
  8
0
 10
101.9
 20
331.592
 11
101.9
 21
331.1
  0
LINE
  8
0
 10
101.9
 20
331.1
 11
94.1
 21
331.1
  0
LINE
  8
0
 10
94.1
 20
331.1
 11
94.1
 21
331.592
  0
LINE
  8
0
 10
94.1
 20
331.592
 11
94.2
 21
332.192
  0
LINE
  8
0
 10
94.2
 20
332.192
 11
94.2
 21
332.808
  0
LINE
  8
0
 10
94.2
 20
332.808
 11
94.1
 21
333.408
  0
LINE
  8
0
 10
94.1
 20
333.408
 11
94.1
 21
334.1
  0
LINE
  8
0
 10
94.1
 20
334.1
 11
85.9
 21
334.1
  0
LINE
  8
0
 10
85.9
 20
334.1
 11
85.9
 21
333.408
  0
LINE
  8
0
 10
85.9
 20
333.408
 11
85.8
 21
332.808
  0
LINE
  8
0
 10
85.8
 20
332.808
 11
85.8
 21
332.192
  0
LINE
  8
0
 10
85.8
 20
332.192
 11
85.9
 21
331.592
  0
LINE
  8
0
 10
85.9
 20
331.592
 11
85.9
 21
331.1
  0
LINE
  8
0
 10
85.9
 20
331.1
 11
78.1
 21
331.1
  0
LINE
  8
0
 10
78.1
 20
331.1
 11
78.1
 21
331.592
  0
LINE
  8
0
 10
78.1
 20
331.592
 11
78.2
 21
332.192
  0
LINE
  8
0
 10
78.2
 20
332.192
 11
78.2
 21
332.808
  0
LINE
  8
0
 10
78.2
 20
332.808
 11
78.1
 21
333.408
  0
LINE
  8
0
 10
78.1
 20
333.408
 11
78.1
 21
334.1
  0
LINE
  8
0
 10
78.1
 20
334.1
 11
69.9
 21
334.1
  0
LINE
  8
0
 10
69.9
 20
334.1
 11
69.9
 21
333.408
  0
LINE
  8
0
 10
69.9
 20
333.408
 11
69.8
 21
332.808
  0
LINE
  8
0
 10
69.8
 20
332.808
 11
69.8
 21
332.192
  0
LINE
  8
0
 10
69.8
 20
332.192
 11
69.9
 21
331.592
  0
LINE
  8
0
 10
69.9
 20
331.592
 11
69.9
 21
331.1
  0
LINE
  8
0
 10
69.9
 20
331.1
 11
62.1
 21
331.1
  0
LINE
  8
0
 10
62.1
 20
331.1
 11
62.1
 21
331.592
  0
LINE
  8
0
 10
62.1
 20
331.592
 11
62.2
 21
332.192
  0
LINE
  8
0
 10
62.2
 20
332.192
 11
62.2
 21
332.808
  0
LINE
  8
0
 10
62.2
 20
332.808
 11
62.1
 21
333.408
  0
LINE
  8
0
 10
62.1
 20
333.408
 11
62.1
 21
334.1
  0
LINE
  8
0
 10
62.1
 20
334.1
 11
53.9
 21
334.1
  0
LINE
  8
0
 10
53.9
 20
334.1
 11
53.9
 21
333.408
  0
LINE
  8
0
 10
53.9
 20
333.408
 11
53.8
 21
332.808
  0
LINE
  8
0
 10
53.8
 20
332.808
 11
53.8
 21
332.192
  0
LINE
  8
0
 10
53.8
 20
332.192
 11
53.9
 21
331.592
  0
LINE
  8
0
 10
53.9
 20
331.592
 11
53.9
 21
331.1
  0
LINE
  8
0
 10
53.9
 20
331.1
 11
46.1
 21
331.1
  0
LINE
  8
0
 10
46.1
 20
331.1
 11
46.1
 21
331.592
  0
LINE
  8
0
 10
46.1
 20
331.592
 11
46.2
 21
332.192
  0
LINE
  8
0
 10
46.2
 20
332.192
 11
46.2
 21
332.808
  0
LINE
  8
0
 10
46.2
 20
332.808
 11
46.1
 21
333.408
  0
LINE
  8
0
 10
46.1
 20
333.408
 11
46.1
 21
334.1
  0
LINE
  8
0
 10
46.1
 20
334.1
 11
37.9
 21
334.1
  0
LINE
  8
0
 10
37.9
 20
334.1
 11
37.9
 21
333.408
  0
LINE
  8
0
 10
37.9
 20
333.408
 11
37.8
 21
332.808
  0
LINE
  8
0
 10
37.8
 20
332.808
 11
37.8
 21
332.192
  0
LINE
  8
0
 10
37.8
 20
332.192
 11
37.9
 21
331.592
  0
LINE
  8
0
 10
37.9
 20
331.592
 11
37.9
 21
331.1
  0
LINE
  8
0
 10
37.9
 20
331.1
 11
30.1
 21
331.1
  0
LINE
  8
0
 10
30.1
 20
331.1
 11
30.1
 21
331.592
  0
LINE
  8
0
 10
30.1
 20
331.592
 11
30.2
 21
332.192
  0
LINE
  8
0
 10
30.2
 20
332.192
 11
30.2
 21
332.808
  0
LINE
  8
0
 10
30.2
 20
332.808
 11
30.1
 21
333.408
  0
LINE
  8
0
 10
30.1
 20
333.408
 11
30.1
 21
334.1
  0
LINE
  8
0
 10
30.1
 20
334.1
 11
21.9
 21
334.1
  0
LINE
  8
0
 10
21.9
 20
334.1
 11
21.9
 21
333.408
  0
LINE
  8
0
 10
21.9
 20
333.408
 11
21.8
 21
332.808
  0
LINE
  8
0
 10
21.8
 20
332.808
 11
21.8
 21
332.192
  0
LINE
  8
0
 10
21.8
 20
332.192
 11
21.9
 21
331.592
  0
LINE
  8
0
 10
21.9
 20
331.592
 11
21.9
 21
331.1
  0
LINE
  8
0
 10
21.9
 20
331.1
 11
14.1
 21
331.1
  0
LINE
  8
0
 10
14.1
 20
331.1
 11
14.1
 21
331.592
  0
LINE
  8
0
 10
14.1
 20
331.592
 11
14.2
 21
332.192
  0
LINE
  8
0
 10
14.2
 20
332.192
 11
14.2
 21
332.808
  0
LINE
  8
0
 10
14.2
 20
332.808
 11
14.1
 21
333.408
  0
LINE
  8
0
 10
14.1
 20
333.408
 11
14.1
 21
334.1
  0
LINE
  8
0
 10
14.1
 20
334.1
 11
-0.100006
 21
334.1
  0
LINE
  8
0
 10
-0.100006
 20
334.1
 11
-0.100006
 21
321.9
  0
LINE
  8
0
 10
-0.100006
 20
321.9
 11
0.591812
 21
321.9
  0
LINE
  8
0
 10
0.591812
 20
321.9
 11
1.19174
 21
321.8
  0
LINE
  8
0
 10
1.19174
 20
321.8
 11
1.80827
 21
321.8
  0
LINE
  8
0
 10
1.80827
 20
321.8
 11
2.4082
 21
321.9
  0
LINE
  8
0
 10
2.4082
 20
321.9
 11
2.89999
 21
321.9
  0
LINE
  8
0
 10
2.89999
 20
321.9
 11
2.89999
 21
314.1
  0
LINE
  8
0
 10
2.89999
 20
314.1
 11
2.4082
 21
314.1
  0
LINE
  8
0
 10
2.4082
 20
314.1
 11
1.80827
 21
314.2
  0
LINE
  8
0
 10
1.80827
 20
314.2
 11
1.19174
 21
314.2
  0
LINE
  8
0
 10
1.19174
 20
314.2
 11
0.591812
 21
314.1
  0
LINE
  8
0
 10
0.591812
 20
314.1
 11
-0.100006
 21
314.1
  0
LINE
  8
0
 10
-0.100006
 20
314.1
 11
-0.100006
 21
305.9
  0
LINE
  8
0
 10
-0.100006
 20
305.9
 11
0.591812
 21
305.9
  0
LINE
  8
0
 10
0.591812
 20
305.9
 11
1.19174
 21
305.8
  0
LINE
  8
0
 10
1.19174
 20
305.8
 11
1.80827
 21
305.8
  0
LINE
  8
0
 10
1.80827
 20
305.8
 11
2.4082
 21
305.9
  0
LINE
  8
0
 10
2.4082
 20
305.9
 11
2.89999
 21
305.9
  0
LINE
  8
0
 10
2.89999
 20
305.9
 11
2.89999
 21
298.1
  0
LINE
  8
0
 10
2.89999
 20
298.1
 11
2.4082
 21
298.1
  0
LINE
  8
0
 10
2.4082
 20
298.1
 11
1.80827
 21
298.2
  0
LINE
  8
0
 10
1.80827
 20
298.2
 11
1.19174
 21
298.2
  0
LINE
  8
0
 10
1.19174
 20
298.2
 11
0.591812
 21
298.1
  0
LINE
  8
0
 10
0.591812
 20
298.1
 11
-0.100006
 21
298.1
  0
LINE
  8
0
 10
-0.100006
 20
298.1
 11
-0.100006
 21
289.9
  0
LINE
  8
0
 10
-0.100006
 20
289.9
 11
0.591812
 21
289.9
  0
LINE
  8
0
 10
0.591812
 20
289.9
 11
1.19174
 21
289.8
  0
LINE
  8
0
 10
1.19174
 20
289.8
 11
1.80827
 21
289.8
  0
LINE
  8
0
 10
1.80827
 20
289.8
 11
2.4082
 21
289.9
  0
LINE
  8
0
 10
2.4082
 20
289.9
 11
2.89999
 21
289.9
  0
LINE
  8
0
 10
2.89999
 20
289.9
 11
2.89999
 21
282.1
  0
LINE
  8
0
 10
2.89999
 20
282.1
 11
2.4082
 21
282.1
  0
LINE
  8
0
 10
2.4082
 20
282.1
 11
1.80827
 21
282.2
  0
LINE
  8
0
 10
1.80827
 20
282.2
 11
1.19174
 21
282.2
  0
LINE
  8
0
 10
1.19174
 20
282.2
 11
0.591812
 21
282.1
  0
LINE
  8
0
 10
0.591812
 20
282.1
 11
-0.100006
 21
282.1
  0
LINE
  8
0
 10
-0.100006
 20
282.1
 11
-0.100006
 21
273.9
  0
LINE
  8
0
 10
-0.100006
 20
273.9
 11
0.591812
 21
273.9
  0
LINE
  8
0
 10
0.591812
 20
273.9
 11
1.19174
 21
273.8
  0
LINE
  8
0
 10
1.19174
 20
273.8
 11
1.80827
 21
273.8
  0
LINE
  8
0
 10
1.80827
 20
273.8
 11
2.4082
 21
273.9
  0
LINE
  8
0
 10
2.4082
 20
273.9
 11
2.89999
 21
273.9
  0
LINE
  8
0
 10
2.89999
 20
273.9
 11
2.89999
 21
266.1
  0
LINE
  8
0
 10
2.89999
 20
266.1
 11
2.4082
 21
266.1
  0
LINE
  8
0
 10
2.4082
 20
266.1
 11
1.80827
 21
266.2
  0
LINE
  8
0
 10
1.80827
 20
266.2
 11
1.19174
 21
266.2
  0
LINE
  8
0
 10
1.19174
 20
266.2
 11
0.591812
 21
266.1
  0
LINE
  8
0
 10
0.591812
 20
266.1
 11
-0.100006
 21
266.1
  0
LINE
  8
0
 10
-0.100006
 20
266.1
 11
-0.100006
 21
256.875
  0
LINE
  8
0
 10
-0.100006
 20
256.875
 11
180.1
 21
296.92
  0
LINE
  8
0
 10
14.1
 20
212.592
 11
14.2
 21
213.192
  0
LINE
  8
0
 10
14.2
 20
213.192
 11
14.2
 21
213.808
  0
LINE
  8
0
 10
14.2
 20
213.808
 11
14.1
 21
214.408
  0
LINE
  8
0
 10
14.1
 20
214.408
 11
14.1
 21
214.9
  0
LINE
  8
0
 10
14.1
 20
214.9
 11
21.9
 21
214.9
  0
LINE
  8
0
 10
21.9
 20
214.9
 11
21.9
 21
214.408
  0
LINE
  8
0
 10
21.9
 20
214.408
 11
21.8
 21
213.808
  0
LINE
  8
0
 10
21.8
 20
213.808
 11
21.8
 21
213.192
  0
LINE
  8
0
 10
21.8
 20
213.192
 11
21.9
 21
212.592
  0
LINE
  8
0
 10
21.9
 20
212.592
 11
21.9
 21
211.9
  0
LINE
  8
0
 10
21.9
 20
211.9
 11
30.1
 21
211.9
  0
LINE
  8
0
 10
30.1
 20
211.9
 11
30.1
 21
212.592
  0
LINE
  8
0
 10
30.1
 20
212.592
 11
30.2
 21
213.192
  0
LINE
  8
0
 10
30.2
 20
213.192
 11
30.2
 21
213.808
  0
LINE
  8
0
 10
30.2
 20
213.808
 11
30.1
 21
214.408
  0
LINE
  8
0
 10
30.1
 20
214.408
 11
30.1
 21
214.9
  0
LINE
  8
0
 10
30.1
 20
214.9
 11
37.9
 21
214.9
  0
LINE
  8
0
 10
37.9
 20
214.9
 11
37.9
 21
214.408
  0
LINE
  8
0
 10
37.9
 20
214.408
 11
37.8
 21
213.808
  0
LINE
  8
0
 10
37.8
 20
213.808
 11
37.8
 21
213.192
  0
LINE
  8
0
 10
37.8
 20
213.192
 11
37.9
 21
212.592
  0
LINE
  8
0
 10
37.9
 20
212.592
 11
37.9
 21
211.9
  0
LINE
  8
0
 10
37.9
 20
211.9
 11
46.1
 21
211.9
  0
LINE
  8
0
 10
46.1
 20
211.9
 11
46.1
 21
212.592
  0
LINE
  8
0
 10
46.1
 20
212.592
 11
46.2
 21
213.192
  0
LINE
  8
0
 10
46.2
 20
213.192
 11
46.2
 21
213.808
  0
LINE
  8
0
 10
46.2
 20
213.808
 11
46.1
 21
214.408
  0
LINE
  8
0
 10
46.1
 20
214.408
 11
46.1
 21
214.9
  0
LINE
  8
0
 10
46.1
 20
214.9
 11
53.9
 21
214.9
  0
LINE
  8
0
 10
53.9
 20
214.9
 11
53.9
 21
214.408
  0
LINE
  8
0
 10
53.9
 20
214.408
 11
53.8
 21
213.808
  0
LINE
  8
0
 10
53.8
 20
213.808
 11
53.8
 21
213.192
  0
LINE
  8
0
 10
53.8
 20
213.192
 11
53.9
 21
212.592
  0
LINE
  8
0
 10
53.9
 20
212.592
 11
53.9
 21
211.9
  0
LINE
  8
0
 10
53.9
 20
211.9
 11
62.1
 21
211.9
  0
LINE
  8
0
 10
62.1
 20
211.9
 11
62.1
 21
212.592
  0
LINE
  8
0
 10
62.1
 20
212.592
 11
62.2
 21
213.192
  0
LINE
  8
0
 10
62.2
 20
213.192
 11
62.2
 21
213.808
  0
LINE
  8
0
 10
62.2
 20
213.808
 11
62.1
 21
214.408
  0
LINE
  8
0
 10
62.1
 20
214.408
 11
62.1
 21
214.9
  0
LINE
  8
0
 10
62.1
 20
214.9
 11
69.9
 21
214.9
  0
LINE
  8
0
 10
69.9
 20
214.9
 11
69.9
 21
214.408
  0
LINE
  8
0
 10
69.9
 20
214.408
 11
69.8
 21
213.808
  0
LINE
  8
0
 10
69.8
 20
213.808
 11
69.8
 21
213.192
  0
LINE
  8
0
 10
69.8
 20
213.192
 11
69.9
 21
212.592
  0
LINE
  8
0
 10
69.9
 20
212.592
 11
69.9
 21
211.9
  0
LINE
  8
0
 10
69.9
 20
211.9
 11
78.1
 21
211.9
  0
LINE
  8
0
 10
78.1
 20
211.9
 11
78.1
 21
212.592
  0
LINE
  8
0
 10
78.1
 20
212.592
 11
78.2
 21
213.192
  0
LINE
  8
0
 10
78.2
 20
213.192
 11
78.2
 21
213.808
  0
LINE
  8
0
 10
78.2
 20
213.808
 11
78.1
 21
214.408
  0
LINE
  8
0
 10
78.1
 20
214.408
 11
78.1
 21
214.9
  0
LINE
  8
0
 10
78.1
 20
214.9
 11
85.9
 21
214.9
  0
LINE
  8
0
 10
85.9
 20
214.9
 11
85.9
 21
214.408
  0
LINE
  8
0
 10
85.9
 20
214.408
 11
85.8
 21
213.808
  0
LINE
  8
0
 10
85.8
 20
213.808
 11
85.8
 21
213.192
  0
LINE
  8
0
 10
85.8
 20
213.192
 11
85.9
 21
212.592
  0
LINE
  8
0
 10
85.9
 20
212.592
 11
85.9
 21
211.9
  0
LINE
  8
0
 10
85.9
 20
211.9
 11
94.1
 21
211.9
  0
LINE
  8
0
 10
94.1
 20
211.9
 11
94.1
 21
212.592
  0
LINE
  8
0
 10
94.1
 20
212.592
 11
94.2
 21
213.192
  0
LINE
  8
0
 10
94.2
 20
213.192
 11
94.2
 21
213.808
  0
LINE
  8
0
 10
94.2
 20
213.808
 11
94.1
 21
214.408
  0
LINE
  8
0
 10
94.1
 20
214.408
 11
94.1
 21
214.9
  0
LINE
  8
0
 10
94.1
 20
214.9
 11
101.9
 21
214.9
  0
LINE
  8
0
 10
101.9
 20
214.9
 11
101.9
 21
214.408
  0
LINE
  8
0
 10
101.9
 20
214.408
 11
101.8
 21
213.808
  0
LINE
  8
0
 10
101.8
 20
213.808
 11
101.8
 21
213.192
  0
LINE
  8
0
 10
101.8
 20
213.192
 11
101.9
 21
212.592
  0
LINE
  8
0
 10
101.9
 20
212.592
 11
101.9
 21
211.9
  0
LINE
  8
0
 10
101.9
 20
211.9
 11
110.1
 21
211.9
  0
LINE
  8
0
 10
110.1
 20
211.9
 11
110.1
 21
212.592
  0
LINE
  8
0
 10
110.1
 20
212.592
 11
110.2
 21
213.192
  0
LINE
  8
0
 10
110.2
 20
213.192
 11
110.2
 21
213.808
  0
LINE
  8
0
 10
110.2
 20
213.808
 11
110.1
 21
214.408
  0
LINE
  8
0
 10
110.1
 20
214.408
 11
110.1
 21
214.9
  0
LINE
  8
0
 10
110.1
 20
214.9
 11
117.9
 21
214.9
  0
LINE
  8
0
 10
117.9
 20
214.9
 11
117.9
 21
214.408
  0
LINE
  8
0
 10
117.9
 20
214.408
 11
117.8
 21
213.808
  0
LINE
  8
0
 10
117.8
 20
213.808
 11
117.8
 21
213.192
  0
LINE
  8
0
 10
117.8
 20
213.192
 11
117.9
 21
212.592
  0
LINE
  8
0
 10
117.9
 20
212.592
 11
117.9
 21
211.9
  0
LINE
  8
0
 10
117.9
 20
211.9
 11
126.1
 21
211.9
  0
LINE
  8
0
 10
126.1
 20
211.9
 11
126.1
 21
212.592
  0
LINE
  8
0
 10
126.1
 20
212.592
 11
126.2
 21
213.192
  0
LINE
  8
0
 10
126.2
 20
213.192
 11
126.2
 21
213.808
  0
LINE
  8
0
 10
126.2
 20
213.808
 11
126.1
 21
214.408
  0
LINE
  8
0
 10
126.1
 20
214.408
 11
126.1
 21
214.9
  0
LINE
  8
0
 10
126.1
 20
214.9
 11
133.9
 21
214.9
  0
LINE
  8
0
 10
133.9
 20
214.9
 11
133.9
 21
214.408
  0
LINE
  8
0
 10
133.9
 20
214.408
 11
133.8
 21
213.808
  0
LINE
  8
0
 10
133.8
 20
213.808
 11
133.8
 21
213.192
  0
LINE
  8
0
 10
133.8
 20
213.192
 11
133.9
 21
212.592
  0
LINE
  8
0
 10
133.9
 20
212.592
 11
133.9
 21
211.9
  0
LINE
  8
0
 10
133.9
 20
211.9
 11
142.1
 21
211.9
  0
LINE
  8
0
 10
142.1
 20
211.9
 11
142.1
 21
212.592
  0
LINE
  8
0
 10
142.1
 20
212.592
 11
142.2
 21
213.192
  0
LINE
  8
0
 10
142.2
 20
213.192
 11
142.2
 21
213.808
  0
LINE
  8
0
 10
142.2
 20
213.808
 11
142.1
 21
214.408
  0
LINE
  8
0
 10
142.1
 20
214.408
 11
142.1
 21
214.9
  0
LINE
  8
0
 10
142.1
 20
214.9
 11
149.9
 21
214.9
  0
LINE
  8
0
 10
149.9
 20
214.9
 11
149.9
 21
214.408
  0
LINE
  8
0
 10
149.9
 20
214.408
 11
149.8
 21
213.808
  0
LINE
  8
0
 10
149.8
 20
213.808
 11
149.8
 21
213.192
  0
LINE
  8
0
 10
149.8
 20
213.192
 11
149.9
 21
212.592
  0
LINE
  8
0
 10
149.9
 20
212.592
 11
149.9
 21
211.9
  0
LINE
  8
0
 10
149.9
 20
211.9
 11
158.1
 21
211.9
  0
LINE
  8
0
 10
158.1
 20
211.9
 11
158.1
 21
212.592
  0
LINE
  8
0
 10
158.1
 20
212.592
 11
158.2
 21
213.192
  0
LINE
  8
0
 10
158.2
 20
213.192
 11
158.2
 21
213.808
  0
LINE
  8
0
 10
158.2
 20
213.808
 11
158.1
 21
214.408
  0
LINE
  8
0
 10
158.1
 20
214.408
 11
158.1
 21
214.9
  0
LINE
  8
0
 10
158.1
 20
214.9
 11
165.9
 21
214.9
  0
LINE
  8
0
 10
165.9
 20
214.9
 11
165.9
 21
214.408
  0
LINE
  8
0
 10
165.9
 20
214.408
 11
165.8
 21
213.808
  0
LINE
  8
0
 10
165.8
 20
213.808
 11
165.8
 21
213.192
  0
LINE
  8
0
 10
165.8
 20
213.192
 11
165.9
 21
212.592
  0
LINE
  8
0
 10
165.9
 20
212.592
 11
165.9
 21
211.9
  0
LINE
  8
0
 10
165.9
 20
211.9
 11
180.1
 21
211.9
  0
LINE
  8
0
 10
180.1
 20
211.9
 11
180.1
 21
224.1
  0
LINE
  8
0
 10
180.1
 20
224.1
 11
179.408
 21
224.1
  0
LINE
  8
0
 10
179.408
 20
224.1
 11
178.808
 21
224.2
  0
LINE
  8
0
 10
178.808
 20
224.2
 11
178.192
 21
224.2
  0
LINE
  8
0
 10
178.192
 20
224.2
 11
177.592
 21
224.1
  0
LINE
  8
0
 10
177.592
 20
224.1
 11
177.1
 21
224.1
  0
LINE
  8
0
 10
177.1
 20
224.1
 11
177.1
 21
231.9
  0
LINE
  8
0
 10
177.1
 20
231.9
 11
177.592
 21
231.9
  0
LINE
  8
0
 10
177.592
 20
231.9
 11
178.192
 21
231.8
  0
LINE
  8
0
 10
178.192
 20
231.8
 11
178.808
 21
231.8
  0
LINE
  8
0
 10
178.808
 20
231.8
 11
179.408
 21
231.9
  0
LINE
  8
0
 10
179.408
 20
231.9
 11
180.1
 21
231.9
  0
LINE
  8
0
 10
180.1
 20
231.9
 11
180.1
 21
240.1
  0
LINE
  8
0
 10
180.1
 20
240.1
 11
179.408
 21
240.1
  0
LINE
  8
0
 10
179.408
 20
240.1
 11
178.808
 21
240.2
  0
LINE
  8
0
 10
178.808
 20
240.2
 11
178.192
 21
240.2
  0
LINE
  8
0
 10
178.192
 20
240.2
 11
177.592
 21
240.1
  0
LINE
  8
0
 10
177.592
 20
240.1
 11
177.1
 21
240.1
  0
LINE
  8
0
 10
177.1
 20
240.1
 11
177.1
 21
247.9
  0
LINE
  8
0
 10
177.1
 20
247.9
 11
177.592
 21
247.9
  0
LINE
  8
0
 10
177.592
 20
247.9
 11
178.192
 21
247.8
  0
LINE
  8
0
 10
178.192
 20
247.8
 11
178.808
 21
247.8
  0
LINE
  8
0
 10
178.808
 20
247.8
 11
179.408
 21
247.9
  0
LINE
  8
0
 10
179.408
 20
247.9
 11
180.1
 21
247.9
  0
LINE
  8
0
 10
180.1
 20
247.9
 11
180.1
 21
256.1
  0
LINE
  8
0
 10
180.1
 20
256.1
 11
179.408
 21
256.1
  0
LINE
  8
0
 10
179.408
 20
256.1
 11
178.808
 21
256.2
  0
LINE
  8
0
 10
178.808
 20
256.2
 11
178.192
 21
256.2
  0
LINE
  8
0
 10
178.192
 20
256.2
 11
177.592
 21
256.1
  0
LINE
  8
0
 10
177.592
 20
256.1
 11
177.1
 21
256.1
  0
LINE
  8
0
 10
177.1
 20
256.1
 11
177.1
 21
263.9
  0
LINE
  8
0
 10
177.1
 20
263.9
 11
177.592
 21
263.9
  0
LINE
  8
0
 10
177.592
 20
263.9
 11
178.192
 21
263.8
  0
LINE
  8
0
 10
178.192
 20
263.8
 11
178.808
 21
263.8
  0
LINE
  8
0
 10
178.808
 20
263.8
 11
179.408
 21
263.9
  0
LINE
  8
0
 10
179.408
 20
263.9
 11
180.1
 21
263.9
  0
LINE
  8
0
 10
180.1
 20
263.9
 11
180.1
 21
272.1
  0
LINE
  8
0
 10
180.1
 20
272.1
 11
179.408
 21
272.1
  0
LINE
  8
0
 10
179.408
 20
272.1
 11
178.808
 21
272.2
  0
LINE
  8
0
 10
178.808
 20
272.2
 11
178.192
 21
272.2
  0
LINE
  8
0
 10
178.192
 20
272.2
 11
177.592
 21
272.1
  0
LINE
  8
0
 10
177.592
 20
272.1
 11
177.1
 21
272.1
  0
LINE
  8
0
 10
177.1
 20
272.1
 11
177.1
 21
279.9
  0
LINE
  8
0
 10
177.1
 20
279.9
 11
177.592
 21
279.9
  0
LINE
  8
0
 10
177.592
 20
279.9
 11
178.192
 21
279.8
  0
LINE
  8
0
 10
178.192
 20
279.8
 11
178.808
 21
279.8
  0
LINE
  8
0
 10
178.808
 20
279.8
 11
179.408
 21
279.9
  0
LINE
  8
0
 10
179.408
 20
279.9
 11
180.1
 21
279.9
  0
LINE
  8
0
 10
180.1
 20
279.9
 11
180.1
 21
289.125
  0
LINE
  8
0
 10
180.1
 20
289.125
 11
-0.100006
 21
249.08
  0
LINE
  8
0
 10
-0.100006
 20
249.08
 11
-0.100006
 21
235.9
  0
LINE
  8
0
 10
-0.100006
 20
235.9
 11
0.591797
 21
235.9
  0
LINE
  8
0
 10
0.591797
 20
235.9
 11
1.19173
 21
235.8
  0
LINE
  8
0
 10
1.19173
 20
235.8
 11
1.80826
 21
235.8
  0
LINE
  8
0
 10
1.80826
 20
235.8
 11
2.40819
 21
235.9
  0
LINE
  8
0
 10
2.40819
 20
235.9
 11
2.89999
 21
235.9
  0
LINE
  8
0
 10
2.89999
 20
235.9
 11
2.89999
 21
228.1
  0
LINE
  8
0
 10
2.89999
 20
228.1
 11
2.40819
 21
228.1
  0
LINE
  8
0
 10
2.40819
 20
228.1
 11
1.80826
 21
228.2
  0
LINE
  8
0
 10
1.80826
 20
228.2
 11
1.19173
 21
228.2
  0
LINE
  8
0
 10
1.19173
 20
228.2
 11
0.591797
 21
228.1
  0
LINE
  8
0
 10
0.591797
 20
228.1
 11
-0.100006
 21
228.1
  0
LINE
  8
0
 10
-0.100006
 20
228.1
 11
-0.100006
 21
211.9
  0
LINE
  8
0
 10
-0.100006
 20
211.9
 11
14.1
 21
211.9
  0
LINE
  8
0
 10
14.1
 20
211.9
 11
14.1
 21
212.592
  0
LINE
  8
0
 10
22.1
 20
2.89999
 11
29.9
 21
2.89999
  0
LINE
  8
0
 10
29.9
 20
2.89999
 11
29.9
 21
-0.100006
  0
LINE
  8
0
 10
29.9
 20
-0.100006
 11
38.1
 21
-0.100006
  0
LINE
  8
0
 10
38.1
 20
-0.100006
 11
38.1
 21
2.89999
  0
LINE
  8
0
 10
38.1
 20
2.89999
 11
45.9
 21
2.89999
  0
LINE
  8
0
 10
45.9
 20
2.89999
 11
45.9
 21
-0.100006
  0
LINE
  8
0
 10
45.9
 20
-0.100006
 11
54.1
 21
-0.100006
  0
LINE
  8
0
 10
54.1
 20
-0.100006
 11
54.1
 21
2.89999
  0
LINE
  8
0
 10
54.1
 20
2.89999
 11
61.9
 21
2.89999
  0
LINE
  8
0
 10
61.9
 20
2.89999
 11
61.9
 21
-0.100006
  0
LINE
  8
0
 10
61.9
 20
-0.100006
 11
70.1
 21
-0.100006
  0
LINE
  8
0
 10
70.1
 20
-0.100006
 11
70.1
 21
2.89999
  0
LINE
  8
0
 10
70.1
 20
2.89999
 11
77.9
 21
2.89999
  0
LINE
  8
0
 10
77.9
 20
2.89999
 11
77.9
 21
-0.100006
  0
LINE
  8
0
 10
77.9
 20
-0.100006
 11
86.1
 21
-0.100006
  0
LINE
  8
0
 10
86.1
 20
-0.100006
 11
86.1
 21
2.89999
  0
LINE
  8
0
 10
86.1
 20
2.89999
 11
93.9
 21
2.89999
  0
LINE
  8
0
 10
93.9
 20
2.89999
 11
93.9
 21
-0.100006
  0
LINE
  8
0
 10
93.9
 20
-0.100006
 11
102.1
 21
-0.100006
  0
LINE
  8
0
 10
102.1
 20
-0.100006
 11
102.1
 21
2.89999
  0
LINE
  8
0
 10
102.1
 20
2.89999
 11
109.9
 21
2.89999
  0
LINE
  8
0
 10
109.9
 20
2.89999
 11
109.9
 21
-0.100006
  0
LINE
  8
0
 10
109.9
 20
-0.100006
 11
118.1
 21
-0.100006
  0
LINE
  8
0
 10
118.1
 20
-0.100006
 11
118.1
 21
2.89999
  0
LINE
  8
0
 10
118.1
 20
2.89999
 11
125.9
 21
2.89999
  0
LINE
  8
0
 10
125.9
 20
2.89999
 11
125.9
 21
-0.100006
  0
LINE
  8
0
 10
125.9
 20
-0.100006
 11
134.1
 21
-0.100006
  0
LINE
  8
0
 10
134.1
 20
-0.100006
 11
134.1
 21
2.89999
  0
LINE
  8
0
 10
134.1
 20
2.89999
 11
141.9
 21
2.89999
  0
LINE
  8
0
 10
141.9
 20
2.89999
 11
141.9
 21
-0.100006
  0
LINE
  8
0
 10
141.9
 20
-0.100006
 11
150.1
 21
-0.100006
  0
LINE
  8
0
 10
150.1
 20
-0.100006
 11
150.1
 21
2.89999
  0
LINE
  8
0
 10
150.1
 20
2.89999
 11
157.9
 21
2.89999
  0
LINE
  8
0
 10
157.9
 20
2.89999
 11
157.9
 21
-0.100006
  0
LINE
  8
0
 10
157.9
 20
-0.100006
 11
166.1
 21
-0.100006
  0
LINE
  8
0
 10
166.1
 20
-0.100006
 11
166.1
 21
2.89999
  0
LINE
  8
0
 10
166.1
 20
2.89999
 11
180.1
 21
2.89999
  0
LINE
  8
0
 10
180.1
 20
2.89999
 11
180.1
 21
13.1
  0
LINE
  8
0
 10
180.1
 20
13.1
 11
179.408
 21
13.1
  0
LINE
  8
0
 10
179.408
 20
13.1
 11
178.808
 21
13.2
  0
LINE
  8
0
 10
178.808
 20
13.2
 11
178.192
 21
13.2
  0
LINE
  8
0
 10
178.192
 20
13.2
 11
177.592
 21
13.1
  0
LINE
  8
0
 10
177.592
 20
13.1
 11
177.1
 21
13.1
  0
LINE
  8
0
 10
177.1
 20
13.1
 11
177.1
 21
20.9
  0
LINE
  8
0
 10
177.1
 20
20.9
 11
177.592
 21
20.9
  0
LINE
  8
0
 10
177.592
 20
20.9
 11
178.192
 21
20.8
  0
LINE
  8
0
 10
178.192
 20
20.8
 11
178.808
 21
20.8
  0
LINE
  8
0
 10
178.808
 20
20.8
 11
179.408
 21
20.9
  0
LINE
  8
0
 10
179.408
 20
20.9
 11
180.1
 21
20.9
  0
LINE
  8
0
 10
180.1
 20
20.9
 11
180.1
 21
29.1
  0
LINE
  8
0
 10
180.1
 20
29.1
 11
179.408
 21
29.1
  0
LINE
  8
0
 10
179.408
 20
29.1
 11
178.808
 21
29.2
  0
LINE
  8
0
 10
178.808
 20
29.2
 11
178.192
 21
29.2
  0
LINE
  8
0
 10
178.192
 20
29.2
 11
177.592
 21
29.1
  0
LINE
  8
0
 10
177.592
 20
29.1
 11
177.1
 21
29.1
  0
LINE
  8
0
 10
177.1
 20
29.1
 11
177.1
 21
36.9
  0
LINE
  8
0
 10
177.1
 20
36.9
 11
177.592
 21
36.9
  0
LINE
  8
0
 10
177.592
 20
36.9
 11
178.192
 21
36.8
  0
LINE
  8
0
 10
178.192
 20
36.8
 11
178.808
 21
36.8
  0
LINE
  8
0
 10
178.808
 20
36.8
 11
179.408
 21
36.9
  0
LINE
  8
0
 10
179.408
 20
36.9
 11
180.1
 21
36.9
  0
LINE
  8
0
 10
180.1
 20
36.9
 11
180.1
 21
45.1
  0
LINE
  8
0
 10
180.1
 20
45.1
 11
179.408
 21
45.1
  0
LINE
  8
0
 10
179.408
 20
45.1
 11
178.808
 21
45.2
  0
LINE
  8
0
 10
178.808
 20
45.2
 11
178.192
 21
45.2
  0
LINE
  8
0
 10
178.192
 20
45.2
 11
177.592
 21
45.1
  0
LINE
  8
0
 10
177.592
 20
45.1
 11
177.1
 21
45.1
  0
LINE
  8
0
 10
177.1
 20
45.1
 11
177.1
 21
52.9
  0
LINE
  8
0
 10
177.1
 20
52.9
 11
177.592
 21
52.9
  0
LINE
  8
0
 10
177.592
 20
52.9
 11
178.192
 21
52.8
  0
LINE
  8
0
 10
178.192
 20
52.8
 11
178.808
 21
52.8
  0
LINE
  8
0
 10
178.808
 20
52.8
 11
179.408
 21
52.9
  0
LINE
  8
0
 10
179.408
 20
52.9
 11
180.1
 21
52.9
  0
LINE
  8
0
 10
180.1
 20
52.9
 11
180.1
 21
61.1
  0
LINE
  8
0
 10
180.1
 20
61.1
 11
179.408
 21
61.1
  0
LINE
  8
0
 10
179.408
 20
61.1
 11
178.808
 21
61.2
  0
LINE
  8
0
 10
178.808
 20
61.2
 11
178.192
 21
61.2
  0
LINE
  8
0
 10
178.192
 20
61.2
 11
177.592
 21
61.1
  0
LINE
  8
0
 10
177.592
 20
61.1
 11
177.1
 21
61.1
  0
LINE
  8
0
 10
177.1
 20
61.1
 11
177.1
 21
68.9
  0
LINE
  8
0
 10
177.1
 20
68.9
 11
177.592
 21
68.9
  0
LINE
  8
0
 10
177.592
 20
68.9
 11
178.192
 21
68.8
  0
LINE
  8
0
 10
178.192
 20
68.8
 11
178.808
 21
68.8
  0
LINE
  8
0
 10
178.808
 20
68.8
 11
179.408
 21
68.9
  0
LINE
  8
0
 10
179.408
 20
68.9
 11
180.1
 21
68.9
  0
LINE
  8
0
 10
180.1
 20
68.9
 11
180.1
 21
77.1
  0
LINE
  8
0
 10
180.1
 20
77.1
 11
179.408
 21
77.1
  0
LINE
  8
0
 10
179.408
 20
77.1
 11
178.808
 21
77.2
  0
LINE
  8
0
 10
178.808
 20
77.2
 11
178.192
 21
77.2
  0
LINE
  8
0
 10
178.192
 20
77.2
 11
177.592
 21
77.1
  0
LINE
  8
0
 10
177.592
 20
77.1
 11
177.1
 21
77.1
  0
LINE
  8
0
 10
177.1
 20
77.1
 11
177.1
 21
84.9
  0
LINE
  8
0
 10
177.1
 20
84.9
 11
177.592
 21
84.9
  0
LINE
  8
0
 10
177.592
 20
84.9
 11
178.192
 21
84.8
  0
LINE
  8
0
 10
178.192
 20
84.8
 11
178.808
 21
84.8
  0
LINE
  8
0
 10
178.808
 20
84.8
 11
179.408
 21
84.9
  0
LINE
  8
0
 10
179.408
 20
84.9
 11
180.1
 21
84.9
  0
LINE
  8
0
 10
180.1
 20
84.9
 11
180.1
 21
93.1
  0
LINE
  8
0
 10
180.1
 20
93.1
 11
179.408
 21
93.1
  0
LINE
  8
0
 10
179.408
 20
93.1
 11
178.808
 21
93.2
  0
LINE
  8
0
 10
178.808
 20
93.2
 11
178.192
 21
93.2
  0
LINE
  8
0
 10
178.192
 20
93.2
 11
177.592
 21
93.1
  0
LINE
  8
0
 10
177.592
 20
93.1
 11
177.1
 21
93.1
  0
LINE
  8
0
 10
177.1
 20
93.1
 11
177.1
 21
100.9
  0
LINE
  8
0
 10
177.1
 20
100.9
 11
177.592
 21
100.9
  0
LINE
  8
0
 10
177.592
 20
100.9
 11
178.192
 21
100.8
  0
LINE
  8
0
 10
178.192
 20
100.8
 11
178.808
 21
100.8
  0
LINE
  8
0
 10
178.808
 20
100.8
 11
179.408
 21
100.9
  0
LINE
  8
0
 10
179.408
 20
100.9
 11
180.1
 21
100.9
  0
LINE
  8
0
 10
180.1
 20
100.9
 11
180.1
 21
109.1
  0
LINE
  8
0
 10
180.1
 20
109.1
 11
179.408
 21
109.1
  0
LINE
  8
0
 10
179.408
 20
109.1
 11
178.808
 21
109.2
  0
LINE
  8
0
 10
178.808
 20
109.2
 11
178.192
 21
109.2
  0
LINE
  8
0
 10
178.192
 20
109.2
 11
177.592
 21
109.1
  0
LINE
  8
0
 10
177.592
 20
109.1
 11
177.1
 21
109.1
  0
LINE
  8
0
 10
177.1
 20
109.1
 11
177.1
 21
116.9
  0
LINE
  8
0
 10
177.1
 20
116.9
 11
177.592
 21
116.9
  0
LINE
  8
0
 10
177.592
 20
116.9
 11
178.192
 21
116.8
  0
LINE
  8
0
 10
178.192
 20
116.8
 11
178.808
 21
116.8
  0
LINE
  8
0
 10
178.808
 20
116.8
 11
179.408
 21
116.9
  0
LINE
  8
0
 10
179.408
 20
116.9
 11
180.1
 21
116.9
  0
LINE
  8
0
 10
180.1
 20
116.9
 11
180.1
 21
125.1
  0
LINE
  8
0
 10
180.1
 20
125.1
 11
179.408
 21
125.1
  0
LINE
  8
0
 10
179.408
 20
125.1
 11
178.808
 21
125.2
  0
LINE
  8
0
 10
178.808
 20
125.2
 11
178.192
 21
125.2
  0
LINE
  8
0
 10
178.192
 20
125.2
 11
177.592
 21
125.1
  0
LINE
  8
0
 10
177.592
 20
125.1
 11
177.1
 21
125.1
  0
LINE
  8
0
 10
177.1
 20
125.1
 11
177.1
 21
132.9
  0
LINE
  8
0
 10
177.1
 20
132.9
 11
177.592
 21
132.9
  0
LINE
  8
0
 10
177.592
 20
132.9
 11
178.192
 21
132.8
  0
LINE
  8
0
 10
178.192
 20
132.8
 11
178.808
 21
132.8
  0
LINE
  8
0
 10
178.808
 20
132.8
 11
179.408
 21
132.9
  0
LINE
  8
0
 10
179.408
 20
132.9
 11
180.1
 21
132.9
  0
LINE
  8
0
 10
180.1
 20
132.9
 11
180.1
 21
141.1
  0
LINE
  8
0
 10
180.1
 20
141.1
 11
179.408
 21
141.1
  0
LINE
  8
0
 10
179.408
 20
141.1
 11
178.808
 21
141.2
  0
LINE
  8
0
 10
178.808
 20
141.2
 11
178.192
 21
141.2
  0
LINE
  8
0
 10
178.192
 20
141.2
 11
177.592
 21
141.1
  0
LINE
  8
0
 10
177.592
 20
141.1
 11
177.1
 21
141.1
  0
LINE
  8
0
 10
177.1
 20
141.1
 11
177.1
 21
148.9
  0
LINE
  8
0
 10
177.1
 20
148.9
 11
177.592
 21
148.9
  0
LINE
  8
0
 10
177.592
 20
148.9
 11
178.192
 21
148.8
  0
LINE
  8
0
 10
178.192
 20
148.8
 11
178.808
 21
148.8
  0
LINE
  8
0
 10
178.808
 20
148.8
 11
179.408
 21
148.9
  0
LINE
  8
0
 10
179.408
 20
148.9
 11
180.1
 21
148.9
  0
LINE
  8
0
 10
180.1
 20
148.9
 11
180.1
 21
157.1
  0
LINE
  8
0
 10
180.1
 20
157.1
 11
179.408
 21
157.1
  0
LINE
  8
0
 10
179.408
 20
157.1
 11
178.808
 21
157.2
  0
LINE
  8
0
 10
178.808
 20
157.2
 11
178.192
 21
157.2
  0
LINE
  8
0
 10
178.192
 20
157.2
 11
177.592
 21
157.1
  0
LINE
  8
0
 10
177.592
 20
157.1
 11
177.1
 21
157.1
  0
LINE
  8
0
 10
177.1
 20
157.1
 11
177.1
 21
164.9
  0
LINE
  8
0
 10
177.1
 20
164.9
 11
177.592
 21
164.9
  0
LINE
  8
0
 10
177.592
 20
164.9
 11
178.192
 21
164.8
  0
LINE
  8
0
 10
178.192
 20
164.8
 11
178.808
 21
164.8
  0
LINE
  8
0
 10
178.808
 20
164.8
 11
179.408
 21
164.9
  0
LINE
  8
0
 10
179.408
 20
164.9
 11
180.1
 21
164.9
  0
LINE
  8
0
 10
180.1
 20
164.9
 11
180.1
 21
173.1
  0
LINE
  8
0
 10
180.1
 20
173.1
 11
179.408
 21
173.1
  0
LINE
  8
0
 10
179.408
 20
173.1
 11
178.808
 21
173.2
  0
LINE
  8
0
 10
178.808
 20
173.2
 11
178.192
 21
173.2
  0
LINE
  8
0
 10
178.192
 20
173.2
 11
177.592
 21
173.1
  0
LINE
  8
0
 10
177.592
 20
173.1
 11
177.1
 21
173.1
  0
LINE
  8
0
 10
177.1
 20
173.1
 11
177.1
 21
180.9
  0
LINE
  8
0
 10
177.1
 20
180.9
 11
177.592
 21
180.9
  0
LINE
  8
0
 10
177.592
 20
180.9
 11
178.192
 21
180.8
  0
LINE
  8
0
 10
178.192
 20
180.8
 11
178.808
 21
180.8
  0
LINE
  8
0
 10
178.808
 20
180.8
 11
179.408
 21
180.9
  0
LINE
  8
0
 10
179.408
 20
180.9
 11
180.1
 21
180.9
  0
LINE
  8
0
 10
180.1
 20
180.9
 11
180.1
 21
189.1
  0
LINE
  8
0
 10
180.1
 20
189.1
 11
179.408
 21
189.1
  0
LINE
  8
0
 10
179.408
 20
189.1
 11
178.808
 21
189.2
  0
LINE
  8
0
 10
178.808
 20
189.2
 11
178.192
 21
189.2
  0
LINE
  8
0
 10
178.192
 20
189.2
 11
177.592
 21
189.1
  0
LINE
  8
0
 10
177.592
 20
189.1
 11
177.1
 21
189.1
  0
LINE
  8
0
 10
177.1
 20
189.1
 11
177.1
 21
196.9
  0
LINE
  8
0
 10
177.1
 20
196.9
 11
177.592
 21
196.9
  0
LINE
  8
0
 10
177.592
 20
196.9
 11
178.192
 21
196.8
  0
LINE
  8
0
 10
178.192
 20
196.8
 11
178.808
 21
196.8
  0
LINE
  8
0
 10
178.808
 20
196.8
 11
179.408
 21
196.9
  0
LINE
  8
0
 10
179.408
 20
196.9
 11
180.1
 21
196.9
  0
LINE
  8
0
 10
180.1
 20
196.9
 11
180.1
 21
207.1
  0
LINE
  8
0
 10
180.1
 20
207.1
 11
166.1
 21
207.1
  0
LINE
  8
0
 10
166.1
 20
207.1
 11
166.1
 21
210.1
  0
LINE
  8
0
 10
166.1
 20
210.1
 11
157.9
 21
210.1
  0
LINE
  8
0
 10
157.9
 20
210.1
 11
157.9
 21
207.1
  0
LINE
  8
0
 10
157.9
 20
207.1
 11
150.1
 21
207.1
  0
LINE
  8
0
 10
150.1
 20
207.1
 11
150.1
 21
210.1
  0
LINE
  8
0
 10
150.1
 20
210.1
 11
141.9
 21
210.1
  0
LINE
  8
0
 10
141.9
 20
210.1
 11
141.9
 21
207.1
  0
LINE
  8
0
 10
141.9
 20
207.1
 11
134.1
 21
207.1
  0
LINE
  8
0
 10
134.1
 20
207.1
 11
134.1
 21
210.1
  0
LINE
  8
0
 10
134.1
 20
210.1
 11
125.9
 21
210.1
  0
LINE
  8
0
 10
125.9
 20
210.1
 11
125.9
 21
207.1
  0
LINE
  8
0
 10
125.9
 20
207.1
 11
118.1
 21
207.1
  0
LINE
  8
0
 10
118.1
 20
207.1
 11
118.1
 21
210.1
  0
LINE
  8
0
 10
118.1
 20
210.1
 11
109.9
 21
210.1
  0
LINE
  8
0
 10
109.9
 20
210.1
 11
109.9
 21
207.1
  0
LINE
  8
0
 10
109.9
 20
207.1
 11
102.1
 21
207.1
  0
LINE
  8
0
 10
102.1
 20
207.1
 11
102.1
 21
210.1
  0
LINE
  8
0
 10
102.1
 20
210.1
 11
93.9
 21
210.1
  0
LINE
  8
0
 10
93.9
 20
210.1
 11
93.9
 21
207.1
  0
LINE
  8
0
 10
93.9
 20
207.1
 11
86.1
 21
207.1
  0
LINE
  8
0
 10
86.1
 20
207.1
 11
86.1
 21
210.1
  0
LINE
  8
0
 10
86.1
 20
210.1
 11
77.9
 21
210.1
  0
LINE
  8
0
 10
77.9
 20
210.1
 11
77.9
 21
207.1
  0
LINE
  8
0
 10
77.9
 20
207.1
 11
70.1
 21
207.1
  0
LINE
  8
0
 10
70.1
 20
207.1
 11
70.1
 21
210.1
  0
LINE
  8
0
 10
70.1
 20
210.1
 11
61.9
 21
210.1
  0
LINE
  8
0
 10
61.9
 20
210.1
 11
61.9
 21
207.1
  0
LINE
  8
0
 10
61.9
 20
207.1
 11
54.1
 21
207.1
  0
LINE
  8
0
 10
54.1
 20
207.1
 11
54.1
 21
210.1
  0
LINE
  8
0
 10
54.1
 20
210.1
 11
45.9
 21
210.1
  0
LINE
  8
0
 10
45.9
 20
210.1
 11
45.9
 21
207.1
  0
LINE
  8
0
 10
45.9
 20
207.1
 11
38.1
 21
207.1
  0
LINE
  8
0
 10
38.1
 20
207.1
 11
38.1
 21
210.1
  0
LINE
  8
0
 10
38.1
 20
210.1
 11
29.9
 21
210.1
  0
LINE
  8
0
 10
29.9
 20
210.1
 11
29.9
 21
207.1
  0
LINE
  8
0
 10
29.9
 20
207.1
 11
22.1
 21
207.1
  0
LINE
  8
0
 10
22.1
 20
207.1
 11
22.1
 21
210.1
  0
LINE
  8
0
 10
22.1
 20
210.1
 11
13.9
 21
210.1
  0
LINE
  8
0
 10
13.9
 20
210.1
 11
13.9
 21
207.1
  0
LINE
  8
0
 10
13.9
 20
207.1
 11
-0.100006
 21
207.1
  0
LINE
  8
0
 10
-0.100006
 20
207.1
 11
-0.100006
 21
196.9
  0
LINE
  8
0
 10
-0.100006
 20
196.9
 11
0.591797
 21
196.9
  0
LINE
  8
0
 10
0.591797
 20
196.9
 11
1.19173
 21
196.8
  0
LINE
  8
0
 10
1.19173
 20
196.8
 11
1.80826
 21
196.8
  0
LINE
  8
0
 10
1.80826
 20
196.8
 11
2.40819
 21
196.9
  0
LINE
  8
0
 10
2.40819
 20
196.9
 11
2.89999
 21
196.9
  0
LINE
  8
0
 10
2.89999
 20
196.9
 11
2.89999
 21
189.1
  0
LINE
  8
0
 10
2.89999
 20
189.1
 11
2.40819
 21
189.1
  0
LINE
  8
0
 10
2.40819
 20
189.1
 11
1.80826
 21
189.2
  0
LINE
  8
0
 10
1.80826
 20
189.2
 11
1.19173
 21
189.2
  0
LINE
  8
0
 10
1.19173
 20
189.2
 11
0.591797
 21
189.1
  0
LINE
  8
0
 10
0.591797
 20
189.1
 11
-0.100006
 21
189.1
  0
LINE
  8
0
 10
-0.100006
 20
189.1
 11
-0.100006
 21
180.9
  0
LINE
  8
0
 10
-0.100006
 20
180.9
 11
0.591797
 21
180.9
  0
LINE
  8
0
 10
0.591797
 20
180.9
 11
1.19173
 21
180.8
  0
LINE
  8
0
 10
1.19173
 20
180.8
 11
1.80826
 21
180.8
  0
LINE
  8
0
 10
1.80826
 20
180.8
 11
2.40819
 21
180.9
  0
LINE
  8
0
 10
2.40819
 20
180.9
 11
2.89999
 21
180.9
  0
LINE
  8
0
 10
2.89999
 20
180.9
 11
2.89999
 21
173.1
  0
LINE
  8
0
 10
2.89999
 20
173.1
 11
2.40819
 21
173.1
  0
LINE
  8
0
 10
2.40819
 20
173.1
 11
1.80826
 21
173.2
  0
LINE
  8
0
 10
1.80826
 20
173.2
 11
1.19173
 21
173.2
  0
LINE
  8
0
 10
1.19173
 20
173.2
 11
0.591797
 21
173.1
  0
LINE
  8
0
 10
0.591797
 20
173.1
 11
-0.100006
 21
173.1
  0
LINE
  8
0
 10
-0.100006
 20
173.1
 11
-0.100006
 21
164.9
  0
LINE
  8
0
 10
-0.100006
 20
164.9
 11
0.591797
 21
164.9
  0
LINE
  8
0
 10
0.591797
 20
164.9
 11
1.19173
 21
164.8
  0
LINE
  8
0
 10
1.19173
 20
164.8
 11
1.80826
 21
164.8
  0
LINE
  8
0
 10
1.80826
 20
164.8
 11
2.40819
 21
164.9
  0
LINE
  8
0
 10
2.40819
 20
164.9
 11
2.89999
 21
164.9
  0
LINE
  8
0
 10
2.89999
 20
164.9
 11
2.89999
 21
157.1
  0
LINE
  8
0
 10
2.89999
 20
157.1
 11
2.40819
 21
157.1
  0
LINE
  8
0
 10
2.40819
 20
157.1
 11
1.80826
 21
157.2
  0
LINE
  8
0
 10
1.80826
 20
157.2
 11
1.19173
 21
157.2
  0
LINE
  8
0
 10
1.19173
 20
157.2
 11
0.591797
 21
157.1
  0
LINE
  8
0
 10
0.591797
 20
157.1
 11
-0.100006
 21
157.1
  0
LINE
  8
0
 10
-0.100006
 20
157.1
 11
-0.100006
 21
148.9
  0
LINE
  8
0
 10
-0.100006
 20
148.9
 11
0.591797
 21
148.9
  0
LINE
  8
0
 10
0.591797
 20
148.9
 11
1.19173
 21
148.8
  0
LINE
  8
0
 10
1.19173
 20
148.8
 11
1.80826
 21
148.8
  0
LINE
  8
0
 10
1.80826
 20
148.8
 11
2.40819
 21
148.9
  0
LINE
  8
0
 10
2.40819
 20
148.9
 11
2.89999
 21
148.9
  0
LINE
  8
0
 10
2.89999
 20
148.9
 11
2.89999
 21
141.1
  0
LINE
  8
0
 10
2.89999
 20
141.1
 11
2.40819
 21
141.1
  0
LINE
  8
0
 10
2.40819
 20
141.1
 11
1.80826
 21
141.2
  0
LINE
  8
0
 10
1.80826
 20
141.2
 11
1.19173
 21
141.2
  0
LINE
  8
0
 10
1.19173
 20
141.2
 11
0.591797
 21
141.1
  0
LINE
  8
0
 10
0.591797
 20
141.1
 11
-0.100006
 21
141.1
  0
LINE
  8
0
 10
-0.100006
 20
141.1
 11
-0.100006
 21
132.9
  0
LINE
  8
0
 10
-0.100006
 20
132.9
 11
0.591797
 21
132.9
  0
LINE
  8
0
 10
0.591797
 20
132.9
 11
1.19173
 21
132.8
  0
LINE
  8
0
 10
1.19173
 20
132.8
 11
1.80826
 21
132.8
  0
LINE
  8
0
 10
1.80826
 20
132.8
 11
2.40819
 21
132.9
  0
LINE
  8
0
 10
2.40819
 20
132.9
 11
2.89999
 21
132.9
  0
LINE
  8
0
 10
2.89999
 20
132.9
 11
2.89999
 21
125.1
  0
LINE
  8
0
 10
2.89999
 20
125.1
 11
2.40819
 21
125.1
  0
LINE
  8
0
 10
2.40819
 20
125.1
 11
1.80826
 21
125.2
  0
LINE
  8
0
 10
1.80826
 20
125.2
 11
1.19173
 21
125.2
  0
LINE
  8
0
 10
1.19173
 20
125.2
 11
0.591797
 21
125.1
  0
LINE
  8
0
 10
0.591797
 20
125.1
 11
-0.100006
 21
125.1
  0
LINE
  8
0
 10
-0.100006
 20
125.1
 11
-0.100006
 21
116.9
  0
LINE
  8
0
 10
-0.100006
 20
116.9
 11
0.591797
 21
116.9
  0
LINE
  8
0
 10
0.591797
 20
116.9
 11
1.19173
 21
116.8
  0
LINE
  8
0
 10
1.19173
 20
116.8
 11
1.80826
 21
116.8
  0
LINE
  8
0
 10
1.80826
 20
116.8
 11
2.40819
 21
116.9
  0
LINE
  8
0
 10
2.40819
 20
116.9
 11
2.89999
 21
116.9
  0
LINE
  8
0
 10
2.89999
 20
116.9
 11
2.89999
 21
109.1
  0
LINE
  8
0
 10
2.89999
 20
109.1
 11
2.40819
 21
109.1
  0
LINE
  8
0
 10
2.40819
 20
109.1
 11
1.80826
 21
109.2
  0
LINE
  8
0
 10
1.80826
 20
109.2
 11
1.19173
 21
109.2
  0
LINE
  8
0
 10
1.19173
 20
109.2
 11
0.591797
 21
109.1
  0
LINE
  8
0
 10
0.591797
 20
109.1
 11
-0.100006
 21
109.1
  0
LINE
  8
0
 10
-0.100006
 20
109.1
 11
-0.100006
 21
100.9
  0
LINE
  8
0
 10
-0.100006
 20
100.9
 11
0.591797
 21
100.9
  0
LINE
  8
0
 10
0.591797
 20
100.9
 11
1.19173
 21
100.8
  0
LINE
  8
0
 10
1.19173
 20
100.8
 11
1.80826
 21
100.8
  0
LINE
  8
0
 10
1.80826
 20
100.8
 11
2.40819
 21
100.9
  0
LINE
  8
0
 10
2.40819
 20
100.9
 11
2.89999
 21
100.9
  0
LINE
  8
0
 10
2.89999
 20
100.9
 11
2.89999
 21
93.1
  0
LINE
  8
0
 10
2.89999
 20
93.1
 11
2.40819
 21
93.1
  0
LINE
  8
0
 10
2.40819
 20
93.1
 11
1.80826
 21
93.2
  0
LINE
  8
0
 10
1.80826
 20
93.2
 11
1.19173
 21
93.2
  0
LINE
  8
0
 10
1.19173
 20
93.2
 11
0.591797
 21
93.1
  0
LINE
  8
0
 10
0.591797
 20
93.1
 11
-0.100006
 21
93.1
  0
LINE
  8
0
 10
-0.100006
 20
93.1
 11
-0.100006
 21
84.9
  0
LINE
  8
0
 10
-0.100006
 20
84.9
 11
0.591797
 21
84.9
  0
LINE
  8
0
 10
0.591797
 20
84.9
 11
1.19173
 21
84.8
  0
LINE
  8
0
 10
1.19173
 20
84.8
 11
1.80826
 21
84.8
  0
LINE
  8
0
 10
1.80826
 20
84.8
 11
2.40819
 21
84.9
  0
LINE
  8
0
 10
2.40819
 20
84.9
 11
2.89999
 21
84.9
  0
LINE
  8
0
 10
2.89999
 20
84.9
 11
2.89999
 21
77.1
  0
LINE
  8
0
 10
2.89999
 20
77.1
 11
2.40819
 21
77.1
  0
LINE
  8
0
 10
2.40819
 20
77.1
 11
1.80826
 21
77.2
  0
LINE
  8
0
 10
1.80826
 20
77.2
 11
1.19173
 21
77.2
  0
LINE
  8
0
 10
1.19173
 20
77.2
 11
0.591797
 21
77.1
  0
LINE
  8
0
 10
0.591797
 20
77.1
 11
-0.100006
 21
77.1
  0
LINE
  8
0
 10
-0.100006
 20
77.1
 11
-0.100006
 21
68.9
  0
LINE
  8
0
 10
-0.100006
 20
68.9
 11
0.591797
 21
68.9
  0
LINE
  8
0
 10
0.591797
 20
68.9
 11
1.19173
 21
68.8
  0
LINE
  8
0
 10
1.19173
 20
68.8
 11
1.80826
 21
68.8
  0
LINE
  8
0
 10
1.80826
 20
68.8
 11
2.40819
 21
68.9
  0
LINE
  8
0
 10
2.40819
 20
68.9
 11
2.89999
 21
68.9
  0
LINE
  8
0
 10
2.89999
 20
68.9
 11
2.89999
 21
61.1
  0
LINE
  8
0
 10
2.89999
 20
61.1
 11
2.40819
 21
61.1
  0
LINE
  8
0
 10
2.40819
 20
61.1
 11
1.80826
 21
61.2
  0
LINE
  8
0
 10
1.80826
 20
61.2
 11
1.19173
 21
61.2
  0
LINE
  8
0
 10
1.19173
 20
61.2
 11
0.591797
 21
61.1
  0
LINE
  8
0
 10
0.591797
 20
61.1
 11
-0.100006
 21
61.1
  0
LINE
  8
0
 10
-0.100006
 20
61.1
 11
-0.100006
 21
52.9
  0
LINE
  8
0
 10
-0.100006
 20
52.9
 11
0.591797
 21
52.9
  0
LINE
  8
0
 10
0.591797
 20
52.9
 11
1.19173
 21
52.8
  0
LINE
  8
0
 10
1.19173
 20
52.8
 11
1.80826
 21
52.8
  0
LINE
  8
0
 10
1.80826
 20
52.8
 11
2.40819
 21
52.9
  0
LINE
  8
0
 10
2.40819
 20
52.9
 11
2.89999
 21
52.9
  0
LINE
  8
0
 10
2.89999
 20
52.9
 11
2.89999
 21
45.1
  0
LINE
  8
0
 10
2.89999
 20
45.1
 11
2.40819
 21
45.1
  0
LINE
  8
0
 10
2.40819
 20
45.1
 11
1.80826
 21
45.2
  0
LINE
  8
0
 10
1.80826
 20
45.2
 11
1.19173
 21
45.2
  0
LINE
  8
0
 10
1.19173
 20
45.2
 11
0.591797
 21
45.1
  0
LINE
  8
0
 10
0.591797
 20
45.1
 11
-0.100006
 21
45.1
  0
LINE
  8
0
 10
-0.100006
 20
45.1
 11
-0.100006
 21
36.9
  0
LINE
  8
0
 10
-0.100006
 20
36.9
 11
0.591797
 21
36.9
  0
LINE
  8
0
 10
0.591797
 20
36.9
 11
1.19173
 21
36.8
  0
LINE
  8
0
 10
1.19173
 20
36.8
 11
1.80826
 21
36.8
  0
LINE
  8
0
 10
1.80826
 20
36.8
 11
2.40819
 21
36.9
  0
LINE
  8
0
 10
2.40819
 20
36.9
 11
2.89999
 21
36.9
  0
LINE
  8
0
 10
2.89999
 20
36.9
 11
2.89999
 21
29.1
  0
LINE
  8
0
 10
2.89999
 20
29.1
 11
2.40819
 21
29.1
  0
LINE
  8
0
 10
2.40819
 20
29.1
 11
1.80826
 21
29.2
  0
LINE
  8
0
 10
1.80826
 20
29.2
 11
1.19173
 21
29.2
  0
LINE
  8
0
 10
1.19173
 20
29.2
 11
0.591797
 21
29.1
  0
LINE
  8
0
 10
0.591797
 20
29.1
 11
-0.100006
 21
29.1
  0
LINE
  8
0
 10
-0.100006
 20
29.1
 11
-0.100006
 21
20.9
  0
LINE
  8
0
 10
-0.100006
 20
20.9
 11
0.591797
 21
20.9
  0
LINE
  8
0
 10
0.591797
 20
20.9
 11
1.19173
 21
20.8
  0
LINE
  8
0
 10
1.19173
 20
20.8
 11
1.80826
 21
20.8
  0
LINE
  8
0
 10
1.80826
 20
20.8
 11
2.40819
 21
20.9
  0
LINE
  8
0
 10
2.40819
 20
20.9
 11
2.89999
 21
20.9
  0
LINE
  8
0
 10
2.89999
 20
20.9
 11
2.89999
 21
13.1
  0
LINE
  8
0
 10
2.89999
 20
13.1
 11
2.40819
 21
13.1
  0
LINE
  8
0
 10
2.40819
 20
13.1
 11
1.80826
 21
13.2
  0
LINE
  8
0
 10
1.80826
 20
13.2
 11
1.19173
 21
13.2
  0
LINE
  8
0
 10
1.19173
 20
13.2
 11
0.591797
 21
13.1
  0
LINE
  8
0
 10
0.591797
 20
13.1
 11
-0.100006
 21
13.1
  0
LINE
  8
0
 10
-0.100006
 20
13.1
 11
-0.100006
 21
2.89999
  0
LINE
  8
0
 10
-0.100006
 20
2.89999
 11
13.9
 21
2.89999
  0
LINE
  8
0
 10
13.9
 20
2.89999
 11
13.9
 21
-0.100006
  0
LINE
  8
0
 10
13.9
 20
-0.100006
 11
22.1
 21
-0.100006
  0
LINE
  8
0
 10
22.1
 20
-0.100006
 11
22.1
 21
2.89999
  0
LINE
  8
0
 10
-17.9
 20
0.591797
 11
-17.8
 21
1.19173
  0
LINE
  8
0
 10
-17.8
 20
1.19173
 11
-17.8
 21
1.80826
  0
LINE
  8
0
 10
-17.8
 20
1.80826
 11
-17.9
 21
2.40819
  0
LINE
  8
0
 10
-17.9
 20
2.40819
 11
-17.9
 21
2.89999
  0
LINE
  8
0
 10
-17.9
 20
2.89999
 11
-4.89999
 21
2.89999
  0
LINE
  8
0
 10
-4.89999
 20
2.89999
 11
-4.89999
 21
12.9
  0
LINE
  8
0
 10
-4.89999
 20
12.9
 11
-4.4082
 21
12.9
  0
LINE
  8
0
 10
-4.4082
 20
12.9
 11
-3.80827
 21
12.8
  0
LINE
  8
0
 10
-3.80827
 20
12.8
 11
-3.19174
 21
12.8
  0
LINE
  8
0
 10
-3.19174
 20
12.8
 11
-2.59181
 21
12.9
  0
LINE
  8
0
 10
-2.59181
 20
12.9
 11
-1.89999
 21
12.9
  0
LINE
  8
0
 10
-1.89999
 20
12.9
 11
-1.89999
 21
21.1
  0
LINE
  8
0
 10
-1.89999
 20
21.1
 11
-2.59181
 21
21.1
  0
LINE
  8
0
 10
-2.59181
 20
21.1
 11
-3.19174
 21
21.2
  0
LINE
  8
0
 10
-3.19174
 20
21.2
 11
-3.80827
 21
21.2
  0
LINE
  8
0
 10
-3.80827
 20
21.2
 11
-4.4082
 21
21.1
  0
LINE
  8
0
 10
-4.4082
 20
21.1
 11
-4.89999
 21
21.1
  0
LINE
  8
0
 10
-4.89999
 20
21.1
 11
-4.89999
 21
28.9
  0
LINE
  8
0
 10
-4.89999
 20
28.9
 11
-4.4082
 21
28.9
  0
LINE
  8
0
 10
-4.4082
 20
28.9
 11
-3.80827
 21
28.8
  0
LINE
  8
0
 10
-3.80827
 20
28.8
 11
-3.19174
 21
28.8
  0
LINE
  8
0
 10
-3.19174
 20
28.8
 11
-2.59181
 21
28.9
  0
LINE
  8
0
 10
-2.59181
 20
28.9
 11
-1.89999
 21
28.9
  0
LINE
  8
0
 10
-1.89999
 20
28.9
 11
-1.89999
 21
37.1
  0
LINE
  8
0
 10
-1.89999
 20
37.1
 11
-2.59181
 21
37.1
  0
LINE
  8
0
 10
-2.59181
 20
37.1
 11
-3.19174
 21
37.2
  0
LINE
  8
0
 10
-3.19174
 20
37.2
 11
-3.80827
 21
37.2
  0
LINE
  8
0
 10
-3.80827
 20
37.2
 11
-4.4082
 21
37.1
  0
LINE
  8
0
 10
-4.4082
 20
37.1
 11
-4.89999
 21
37.1
  0
LINE
  8
0
 10
-4.89999
 20
37.1
 11
-4.89999
 21
44.9
  0
LINE
  8
0
 10
-4.89999
 20
44.9
 11
-4.4082
 21
44.9
  0
LINE
  8
0
 10
-4.4082
 20
44.9
 11
-3.80827
 21
44.8
  0
LINE
  8
0
 10
-3.80827
 20
44.8
 11
-3.19174
 21
44.8
  0
LINE
  8
0
 10
-3.19174
 20
44.8
 11
-2.59181
 21
44.9
  0
LINE
  8
0
 10
-2.59181
 20
44.9
 11
-1.89999
 21
44.9
  0
LINE
  8
0
 10
-1.89999
 20
44.9
 11
-1.89999
 21
53.1
  0
LINE
  8
0
 10
-1.89999
 20
53.1
 11
-2.59181
 21
53.1
  0
LINE
  8
0
 10
-2.59181
 20
53.1
 11
-3.19174
 21
53.2
  0
LINE
  8
0
 10
-3.19174
 20
53.2
 11
-3.80827
 21
53.2
  0
LINE
  8
0
 10
-3.80827
 20
53.2
 11
-4.4082
 21
53.1
  0
LINE
  8
0
 10
-4.4082
 20
53.1
 11
-4.89999
 21
53.1
  0
LINE
  8
0
 10
-4.89999
 20
53.1
 11
-4.89999
 21
60.9
  0
LINE
  8
0
 10
-4.89999
 20
60.9
 11
-4.4082
 21
60.9
  0
LINE
  8
0
 10
-4.4082
 20
60.9
 11
-3.80827
 21
60.8
  0
LINE
  8
0
 10
-3.80827
 20
60.8
 11
-3.19174
 21
60.8
  0
LINE
  8
0
 10
-3.19174
 20
60.8
 11
-2.59181
 21
60.9
  0
LINE
  8
0
 10
-2.59181
 20
60.9
 11
-1.89999
 21
60.9
  0
LINE
  8
0
 10
-1.89999
 20
60.9
 11
-1.89999
 21
69.1
  0
LINE
  8
0
 10
-1.89999
 20
69.1
 11
-2.59181
 21
69.1
  0
LINE
  8
0
 10
-2.59181
 20
69.1
 11
-3.19174
 21
69.2
  0
LINE
  8
0
 10
-3.19174
 20
69.2
 11
-3.80827
 21
69.2
  0
LINE
  8
0
 10
-3.80827
 20
69.2
 11
-4.4082
 21
69.1
  0
LINE
  8
0
 10
-4.4082
 20
69.1
 11
-4.89999
 21
69.1
  0
LINE
  8
0
 10
-4.89999
 20
69.1
 11
-4.89999
 21
76.9
  0
LINE
  8
0
 10
-4.89999
 20
76.9
 11
-4.4082
 21
76.9
  0
LINE
  8
0
 10
-4.4082
 20
76.9
 11
-3.80827
 21
76.8
  0
LINE
  8
0
 10
-3.80827
 20
76.8
 11
-3.19174
 21
76.8
  0
LINE
  8
0
 10
-3.19174
 20
76.8
 11
-2.59181
 21
76.9
  0
LINE
  8
0
 10
-2.59181
 20
76.9
 11
-1.89999
 21
76.9
  0
LINE
  8
0
 10
-1.89999
 20
76.9
 11
-1.89999
 21
85.1
  0
LINE
  8
0
 10
-1.89999
 20
85.1
 11
-2.59181
 21
85.1
  0
LINE
  8
0
 10
-2.59181
 20
85.1
 11
-3.19174
 21
85.2
  0
LINE
  8
0
 10
-3.19174
 20
85.2
 11
-3.80827
 21
85.2
  0
LINE
  8
0
 10
-3.80827
 20
85.2
 11
-4.4082
 21
85.1
  0
LINE
  8
0
 10
-4.4082
 20
85.1
 11
-4.89999
 21
85.1
  0
LINE
  8
0
 10
-4.89999
 20
85.1
 11
-4.89999
 21
92.9
  0
LINE
  8
0
 10
-4.89999
 20
92.9
 11
-4.4082
 21
92.9
  0
LINE
  8
0
 10
-4.4082
 20
92.9
 11
-3.80827
 21
92.8
  0
LINE
  8
0
 10
-3.80827
 20
92.8
 11
-3.19174
 21
92.8
  0
LINE
  8
0
 10
-3.19174
 20
92.8
 11
-2.59181
 21
92.9
  0
LINE
  8
0
 10
-2.59181
 20
92.9
 11
-1.89999
 21
92.9
  0
LINE
  8
0
 10
-1.89999
 20
92.9
 11
-1.89999
 21
101.1
  0
LINE
  8
0
 10
-1.89999
 20
101.1
 11
-2.59181
 21
101.1
  0
LINE
  8
0
 10
-2.59181
 20
101.1
 11
-3.19174
 21
101.2
  0
LINE
  8
0
 10
-3.19174
 20
101.2
 11
-3.80827
 21
101.2
  0
LINE
  8
0
 10
-3.80827
 20
101.2
 11
-4.4082
 21
101.1
  0
LINE
  8
0
 10
-4.4082
 20
101.1
 11
-4.89999
 21
101.1
  0
LINE
  8
0
 10
-4.89999
 20
101.1
 11
-4.89999
 21
108.9
  0
LINE
  8
0
 10
-4.89999
 20
108.9
 11
-4.4082
 21
108.9
  0
LINE
  8
0
 10
-4.4082
 20
108.9
 11
-3.80827
 21
108.8
  0
LINE
  8
0
 10
-3.80827
 20
108.8
 11
-3.19174
 21
108.8
  0
LINE
  8
0
 10
-3.19174
 20
108.8
 11
-2.59181
 21
108.9
  0
LINE
  8
0
 10
-2.59181
 20
108.9
 11
-1.89999
 21
108.9
  0
LINE
  8
0
 10
-1.89999
 20
108.9
 11
-1.89999
 21
117.1
  0
LINE
  8
0
 10
-1.89999
 20
117.1
 11
-2.59181
 21
117.1
  0
LINE
  8
0
 10
-2.59181
 20
117.1
 11
-3.19174
 21
117.2
  0
LINE
  8
0
 10
-3.19174
 20
117.2
 11
-3.80827
 21
117.2
  0
LINE
  8
0
 10
-3.80827
 20
117.2
 11
-4.4082
 21
117.1
  0
LINE
  8
0
 10
-4.4082
 20
117.1
 11
-4.89999
 21
117.1
  0
LINE
  8
0
 10
-4.89999
 20
117.1
 11
-4.89999
 21
124.9
  0
LINE
  8
0
 10
-4.89999
 20
124.9
 11
-4.4082
 21
124.9
  0
LINE
  8
0
 10
-4.4082
 20
124.9
 11
-3.80827
 21
124.8
  0
LINE
  8
0
 10
-3.80827
 20
124.8
 11
-3.19174
 21
124.8
  0
LINE
  8
0
 10
-3.19174
 20
124.8
 11
-2.59181
 21
124.9
  0
LINE
  8
0
 10
-2.59181
 20
124.9
 11
-1.89999
 21
124.9
  0
LINE
  8
0
 10
-1.89999
 20
124.9
 11
-1.89999
 21
133.1
  0
LINE
  8
0
 10
-1.89999
 20
133.1
 11
-2.59181
 21
133.1
  0
LINE
  8
0
 10
-2.59181
 20
133.1
 11
-3.19174
 21
133.2
  0
LINE
  8
0
 10
-3.19174
 20
133.2
 11
-3.80827
 21
133.2
  0
LINE
  8
0
 10
-3.80827
 20
133.2
 11
-4.4082
 21
133.1
  0
LINE
  8
0
 10
-4.4082
 20
133.1
 11
-4.89999
 21
133.1
  0
LINE
  8
0
 10
-4.89999
 20
133.1
 11
-4.89999
 21
140.9
  0
LINE
  8
0
 10
-4.89999
 20
140.9
 11
-4.4082
 21
140.9
  0
LINE
  8
0
 10
-4.4082
 20
140.9
 11
-3.80827
 21
140.8
  0
LINE
  8
0
 10
-3.80827
 20
140.8
 11
-3.19174
 21
140.8
  0
LINE
  8
0
 10
-3.19174
 20
140.8
 11
-2.59181
 21
140.9
  0
LINE
  8
0
 10
-2.59181
 20
140.9
 11
-1.89999
 21
140.9
  0
LINE
  8
0
 10
-1.89999
 20
140.9
 11
-1.89999
 21
149.1
  0
LINE
  8
0
 10
-1.89999
 20
149.1
 11
-2.59181
 21
149.1
  0
LINE
  8
0
 10
-2.59181
 20
149.1
 11
-3.19174
 21
149.2
  0
LINE
  8
0
 10
-3.19174
 20
149.2
 11
-3.80827
 21
149.2
  0
LINE
  8
0
 10
-3.80827
 20
149.2
 11
-4.4082
 21
149.1
  0
LINE
  8
0
 10
-4.4082
 20
149.1
 11
-4.89999
 21
149.1
  0
LINE
  8
0
 10
-4.89999
 20
149.1
 11
-4.89999
 21
156.9
  0
LINE
  8
0
 10
-4.89999
 20
156.9
 11
-4.4082
 21
156.9
  0
LINE
  8
0
 10
-4.4082
 20
156.9
 11
-3.80827
 21
156.8
  0
LINE
  8
0
 10
-3.80827
 20
156.8
 11
-3.19174
 21
156.8
  0
LINE
  8
0
 10
-3.19174
 20
156.8
 11
-2.59181
 21
156.9
  0
LINE
  8
0
 10
-2.59181
 20
156.9
 11
-1.89999
 21
156.9
  0
LINE
  8
0
 10
-1.89999
 20
156.9
 11
-1.89999
 21
165.1
  0
LINE
  8
0
 10
-1.89999
 20
165.1
 11
-2.59181
 21
165.1
  0
LINE
  8
0
 10
-2.59181
 20
165.1
 11
-3.19174
 21
165.2
  0
LINE
  8
0
 10
-3.19174
 20
165.2
 11
-3.80827
 21
165.2
  0
LINE
  8
0
 10
-3.80827
 20
165.2
 11
-4.4082
 21
165.1
  0
LINE
  8
0
 10
-4.4082
 20
165.1
 11
-4.89999
 21
165.1
  0
LINE
  8
0
 10
-4.89999
 20
165.1
 11
-4.89999
 21
172.9
  0
LINE
  8
0
 10
-4.89999
 20
172.9
 11
-4.4082
 21
172.9
  0
LINE
  8
0
 10
-4.4082
 20
172.9
 11
-3.80827
 21
172.8
  0
LINE
  8
0
 10
-3.80827
 20
172.8
 11
-3.19174
 21
172.8
  0
LINE
  8
0
 10
-3.19174
 20
172.8
 11
-2.59181
 21
172.9
  0
LINE
  8
0
 10
-2.59181
 20
172.9
 11
-1.89999
 21
172.9
  0
LINE
  8
0
 10
-1.89999
 20
172.9
 11
-1.89999
 21
181.1
  0
LINE
  8
0
 10
-1.89999
 20
181.1
 11
-2.59181
 21
181.1
  0
LINE
  8
0
 10
-2.59181
 20
181.1
 11
-3.19174
 21
181.2
  0
LINE
  8
0
 10
-3.19174
 20
181.2
 11
-3.80827
 21
181.2
  0
LINE
  8
0
 10
-3.80827
 20
181.2
 11
-4.4082
 21
181.1
  0
LINE
  8
0
 10
-4.4082
 20
181.1
 11
-4.89999
 21
181.1
  0
LINE
  8
0
 10
-4.89999
 20
181.1
 11
-4.89999
 21
188.9
  0
LINE
  8
0
 10
-4.89999
 20
188.9
 11
-4.4082
 21
188.9
  0
LINE
  8
0
 10
-4.4082
 20
188.9
 11
-3.80827
 21
188.8
  0
LINE
  8
0
 10
-3.80827
 20
188.8
 11
-3.19174
 21
188.8
  0
LINE
  8
0
 10
-3.19174
 20
188.8
 11
-2.59181
 21
188.9
  0
LINE
  8
0
 10
-2.59181
 20
188.9
 11
-1.89999
 21
188.9
  0
LINE
  8
0
 10
-1.89999
 20
188.9
 11
-1.89999
 21
197.1
  0
LINE
  8
0
 10
-1.89999
 20
197.1
 11
-2.59181
 21
197.1
  0
LINE
  8
0
 10
-2.59181
 20
197.1
 11
-3.19174
 21
197.2
  0
LINE
  8
0
 10
-3.19174
 20
197.2
 11
-3.80827
 21
197.2
  0
LINE
  8
0
 10
-3.80827
 20
197.2
 11
-4.4082
 21
197.1
  0
LINE
  8
0
 10
-4.4082
 20
197.1
 11
-4.89999
 21
197.1
  0
LINE
  8
0
 10
-4.89999
 20
197.1
 11
-4.89999
 21
207.1
  0
LINE
  8
0
 10
-4.89999
 20
207.1
 11
-17.9
 21
207.1
  0
LINE
  8
0
 10
-17.9
 20
207.1
 11
-17.9
 21
207.592
  0
LINE
  8
0
 10
-17.9
 20
207.592
 11
-17.8
 21
208.192
  0
LINE
  8
0
 10
-17.8
 20
208.192
 11
-17.8
 21
208.808
  0
LINE
  8
0
 10
-17.8
 20
208.808
 11
-17.9
 21
209.408
  0
LINE
  8
0
 10
-17.9
 20
209.408
 11
-17.9
 21
210.1
  0
LINE
  8
0
 10
-17.9
 20
210.1
 11
-26.1
 21
210.1
  0
LINE
  8
0
 10
-26.1
 20
210.1
 11
-26.1
 21
209.408
  0
LINE
  8
0
 10
-26.1
 20
209.408
 11
-26.2
 21
208.808
  0
LINE
  8
0
 10
-26.2
 20
208.808
 11
-26.2
 21
208.192
  0
LINE
  8
0
 10
-26.2
 20
208.192
 11
-26.1
 21
207.592
  0
LINE
  8
0
 10
-26.1
 20
207.592
 11
-26.1
 21
207.1
  0
LINE
  8
0
 10
-26.1
 20
207.1
 11
-38.4333
 21
207.1
  0
LINE
  8
0
 10
-38.4333
 20
207.1
 11
-38.4333
 21
197.1
  0
LINE
  8
0
 10
-38.4333
 20
197.1
 11
-41.4333
 21
197.1
  0
LINE
  8
0
 10
-41.4333
 20
197.1
 11
-41.4333
 21
188.9
  0
LINE
  8
0
 10
-41.4333
 20
188.9
 11
-38.4333
 21
188.9
  0
LINE
  8
0
 10
-38.4333
 20
188.9
 11
-38.4333
 21
181.1
  0
LINE
  8
0
 10
-38.4333
 20
181.1
 11
-41.4333
 21
181.1
  0
LINE
  8
0
 10
-41.4333
 20
181.1
 11
-41.4333
 21
172.9
  0
LINE
  8
0
 10
-41.4333
 20
172.9
 11
-38.4333
 21
172.9
  0
LINE
  8
0
 10
-38.4333
 20
172.9
 11
-38.4333
 21
165.1
  0
LINE
  8
0
 10
-38.4333
 20
165.1
 11
-41.4333
 21
165.1
  0
LINE
  8
0
 10
-41.4333
 20
165.1
 11
-41.4333
 21
156.9
  0
LINE
  8
0
 10
-41.4333
 20
156.9
 11
-38.4333
 21
156.9
  0
LINE
  8
0
 10
-38.4333
 20
156.9
 11
-38.4333
 21
149.1
  0
LINE
  8
0
 10
-38.4333
 20
149.1
 11
-41.4333
 21
149.1
  0
LINE
  8
0
 10
-41.4333
 20
149.1
 11
-41.4333
 21
140.9
  0
LINE
  8
0
 10
-41.4333
 20
140.9
 11
-38.4333
 21
140.9
  0
LINE
  8
0
 10
-38.4333
 20
140.9
 11
-38.4333
 21
133.1
  0
LINE
  8
0
 10
-38.4333
 20
133.1
 11
-41.4333
 21
133.1
  0
LINE
  8
0
 10
-41.4333
 20
133.1
 11
-41.4333
 21
124.9
  0
LINE
  8
0
 10
-41.4333
 20
124.9
 11
-38.4333
 21
124.9
  0
LINE
  8
0
 10
-38.4333
 20
124.9
 11
-38.4333
 21
117.1
  0
LINE
  8
0
 10
-38.4333
 20
117.1
 11
-41.4333
 21
117.1
  0
LINE
  8
0
 10
-41.4333
 20
117.1
 11
-41.4333
 21
108.9
  0
LINE
  8
0
 10
-41.4333
 20
108.9
 11
-38.4333
 21
108.9
  0
LINE
  8
0
 10
-38.4333
 20
108.9
 11
-38.4333
 21
101.1
  0
LINE
  8
0
 10
-38.4333
 20
101.1
 11
-41.4333
 21
101.1
  0
LINE
  8
0
 10
-41.4333
 20
101.1
 11
-41.4333
 21
92.9
  0
LINE
  8
0
 10
-41.4333
 20
92.9
 11
-38.4333
 21
92.9
  0
LINE
  8
0
 10
-38.4333
 20
92.9
 11
-38.4333
 21
85.1
  0
LINE
  8
0
 10
-38.4333
 20
85.1
 11
-41.4333
 21
85.1
  0
LINE
  8
0
 10
-41.4333
 20
85.1
 11
-41.4333
 21
76.9
  0
LINE
  8
0
 10
-41.4333
 20
76.9
 11
-38.4333
 21
76.9
  0
LINE
  8
0
 10
-38.4333
 20
76.9
 11
-38.4333
 21
69.1
  0
LINE
  8
0
 10
-38.4333
 20
69.1
 11
-41.4333
 21
69.1
  0
LINE
  8
0
 10
-41.4333
 20
69.1
 11
-41.4333
 21
60.9
  0
LINE
  8
0
 10
-41.4333
 20
60.9
 11
-38.4333
 21
60.9
  0
LINE
  8
0
 10
-38.4333
 20
60.9
 11
-38.4333
 21
53.1
  0
LINE
  8
0
 10
-38.4333
 20
53.1
 11
-41.4333
 21
53.1
  0
LINE
  8
0
 10
-41.4333
 20
53.1
 11
-41.4333
 21
44.9
  0
LINE
  8
0
 10
-41.4333
 20
44.9
 11
-38.4333
 21
44.9
  0
LINE
  8
0
 10
-38.4333
 20
44.9
 11
-38.4333
 21
37.1
  0
LINE
  8
0
 10
-38.4333
 20
37.1
 11
-41.4333
 21
37.1
  0
LINE
  8
0
 10
-41.4333
 20
37.1
 11
-41.4333
 21
28.9
  0
LINE
  8
0
 10
-41.4333
 20
28.9
 11
-38.4333
 21
28.9
  0
LINE
  8
0
 10
-38.4333
 20
28.9
 11
-38.4333
 21
21.1
  0
LINE
  8
0
 10
-38.4333
 20
21.1
 11
-41.4333
 21
21.1
  0
LINE
  8
0
 10
-41.4333
 20
21.1
 11
-41.4333
 21
12.9
  0
LINE
  8
0
 10
-41.4333
 20
12.9
 11
-38.4333
 21
12.9
  0
LINE
  8
0
 10
-38.4333
 20
12.9
 11
-38.4333
 21
2.89999
  0
LINE
  8
0
 10
-38.4333
 20
2.89999
 11
-26.1
 21
2.89999
  0
LINE
  8
0
 10
-26.1
 20
2.89999
 11
-26.1
 21
2.40819
  0
LINE
  8
0
 10
-26.1
 20
2.40819
 11
-26.2
 21
1.80826
  0
LINE
  8
0
 10
-26.2
 20
1.80826
 11
-26.2
 21
1.19173
  0
LINE
  8
0
 10
-26.2
 20
1.19173
 11
-26.1
 21
0.591797
  0
LINE
  8
0
 10
-26.1
 20
0.591797
 11
-26.1
 21
-0.100006
  0
LINE
  8
0
 10
-26.1
 20
-0.100006
 11
-17.9
 21
-0.100006
  0
LINE
  8
0
 10
-17.9
 20
-0.100006
 11
-17.9
 21
0.591797
  0
LINE
  8
0
 10
-61.9
 20
-211.408
 11
-61.8
 21
-210.808
  0
LINE
  8
0
 10
-61.8
 20
-210.808
 11
-61.8
 21
-210.192
  0
LINE
  8
0
 10
-61.8
 20
-210.192
 11
-61.9
 21
-209.592
  0
LINE
  8
0
 10
-61.9
 20
-209.592
 11
-61.9
 21
-209.1
  0
LINE
  8
0
 10
-61.9
 20
-209.1
 11
-54.1
 21
-209.1
  0
LINE
  8
0
 10
-54.1
 20
-209.1
 11
-54.1
 21
-209.592
  0
LINE
  8
0
 10
-54.1
 20
-209.592
 11
-54.2
 21
-210.192
  0
LINE
  8
0
 10
-54.2
 20
-210.192
 11
-54.2
 21
-210.808
  0
LINE
  8
0
 10
-54.2
 20
-210.808
 11
-54.1
 21
-211.408
  0
LINE
  8
0
 10
-54.1
 20
-211.408
 11
-54.1
 21
-212.1
  0
LINE
  8
0
 10
-54.1
 20
-212.1
 11
-45.9
 21
-212.1
  0
LINE
  8
0
 10
-45.9
 20
-212.1
 11
-45.9
 21
-211.408
  0
LINE
  8
0
 10
-45.9
 20
-211.408
 11
-45.8
 21
-210.808
  0
LINE
  8
0
 10
-45.8
 20
-210.808
 11
-45.8
 21
-210.192
  0
LINE
  8
0
 10
-45.8
 20
-210.192
 11
-45.9
 21
-209.592
  0
LINE
  8
0
 10
-45.9
 20
-209.592
 11
-45.9
 21
-209.1
  0
LINE
  8
0
 10
-45.9
 20
-209.1
 11
-38.1
 21
-209.1
  0
LINE
  8
0
 10
-38.1
 20
-209.1
 11
-38.1
 21
-209.592
  0
LINE
  8
0
 10
-38.1
 20
-209.592
 11
-38.2
 21
-210.192
  0
LINE
  8
0
 10
-38.2
 20
-210.192
 11
-38.2
 21
-210.808
  0
LINE
  8
0
 10
-38.2
 20
-210.808
 11
-38.1
 21
-211.408
  0
LINE
  8
0
 10
-38.1
 20
-211.408
 11
-38.1
 21
-212.1
  0
LINE
  8
0
 10
-38.1
 20
-212.1
 11
-29.9
 21
-212.1
  0
LINE
  8
0
 10
-29.9
 20
-212.1
 11
-29.9
 21
-211.408
  0
LINE
  8
0
 10
-29.9
 20
-211.408
 11
-29.8
 21
-210.808
  0
LINE
  8
0
 10
-29.8
 20
-210.808
 11
-29.8
 21
-210.192
  0
LINE
  8
0
 10
-29.8
 20
-210.192
 11
-29.9
 21
-209.592
  0
LINE
  8
0
 10
-29.9
 20
-209.592
 11
-29.9
 21
-209.1
  0
LINE
  8
0
 10
-29.9
 20
-209.1
 11
-22.1
 21
-209.1
  0
LINE
  8
0
 10
-22.1
 20
-209.1
 11
-22.1
 21
-209.592
  0
LINE
  8
0
 10
-22.1
 20
-209.592
 11
-22.2
 21
-210.192
  0
LINE
  8
0
 10
-22.2
 20
-210.192
 11
-22.2
 21
-210.808
  0
LINE
  8
0
 10
-22.2
 20
-210.808
 11
-22.1
 21
-211.408
  0
LINE
  8
0
 10
-22.1
 20
-211.408
 11
-22.1
 21
-212.1
  0
LINE
  8
0
 10
-22.1
 20
-212.1
 11
-13.9
 21
-212.1
  0
LINE
  8
0
 10
-13.9
 20
-212.1
 11
-13.9
 21
-211.408
  0
LINE
  8
0
 10
-13.9
 20
-211.408
 11
-13.8
 21
-210.808
  0
LINE
  8
0
 10
-13.8
 20
-210.808
 11
-13.8
 21
-210.192
  0
LINE
  8
0
 10
-13.8
 20
-210.192
 11
-13.9
 21
-209.592
  0
LINE
  8
0
 10
-13.9
 20
-209.592
 11
-13.9
 21
-209.1
  0
LINE
  8
0
 10
-13.9
 20
-209.1
 11
-4.89999
 21
-209.1
  0
LINE
  8
0
 10
-4.89999
 20
-209.1
 11
-4.89999
 21
-199.1
  0
LINE
  8
0
 10
-4.89999
 20
-199.1
 11
-4.4082
 21
-199.1
  0
LINE
  8
0
 10
-4.4082
 20
-199.1
 11
-3.80827
 21
-199.2
  0
LINE
  8
0
 10
-3.80827
 20
-199.2
 11
-3.19174
 21
-199.2
  0
LINE
  8
0
 10
-3.19174
 20
-199.2
 11
-2.59181
 21
-199.1
  0
LINE
  8
0
 10
-2.59181
 20
-199.1
 11
-1.89999
 21
-199.1
  0
LINE
  8
0
 10
-1.89999
 20
-199.1
 11
-1.89999
 21
-190.9
  0
LINE
  8
0
 10
-1.89999
 20
-190.9
 11
-2.59181
 21
-190.9
  0
LINE
  8
0
 10
-2.59181
 20
-190.9
 11
-3.19174
 21
-190.8
  0
LINE
  8
0
 10
-3.19174
 20
-190.8
 11
-3.80827
 21
-190.8
  0
LINE
  8
0
 10
-3.80827
 20
-190.8
 11
-4.4082
 21
-190.9
  0
LINE
  8
0
 10
-4.4082
 20
-190.9
 11
-4.89999
 21
-190.9
  0
LINE
  8
0
 10
-4.89999
 20
-190.9
 11
-4.89999
 21
-183.1
  0
LINE
  8
0
 10
-4.89999
 20
-183.1
 11
-4.4082
 21
-183.1
  0
LINE
  8
0
 10
-4.4082
 20
-183.1
 11
-3.80827
 21
-183.2
  0
LINE
  8
0
 10
-3.80827
 20
-183.2
 11
-3.19174
 21
-183.2
  0
LINE
  8
0
 10
-3.19174
 20
-183.2
 11
-2.59181
 21
-183.1
  0
LINE
  8
0
 10
-2.59181
 20
-183.1
 11
-1.89999
 21
-183.1
  0
LINE
  8
0
 10
-1.89999
 20
-183.1
 11
-1.89999
 21
-174.9
  0
LINE
  8
0
 10
-1.89999
 20
-174.9
 11
-2.59181
 21
-174.9
  0
LINE
  8
0
 10
-2.59181
 20
-174.9
 11
-3.19174
 21
-174.8
  0
LINE
  8
0
 10
-3.19174
 20
-174.8
 11
-3.80827
 21
-174.8
  0
LINE
  8
0
 10
-3.80827
 20
-174.8
 11
-4.4082
 21
-174.9
  0
LINE
  8
0
 10
-4.4082
 20
-174.9
 11
-4.89999
 21
-174.9
  0
LINE
  8
0
 10
-4.89999
 20
-174.9
 11
-4.89999
 21
-167.1
  0
LINE
  8
0
 10
-4.89999
 20
-167.1
 11
-4.4082
 21
-167.1
  0
LINE
  8
0
 10
-4.4082
 20
-167.1
 11
-3.80827
 21
-167.2
  0
LINE
  8
0
 10
-3.80827
 20
-167.2
 11
-3.19174
 21
-167.2
  0
LINE
  8
0
 10
-3.19174
 20
-167.2
 11
-2.59181
 21
-167.1
  0
LINE
  8
0
 10
-2.59181
 20
-167.1
 11
-1.89999
 21
-167.1
  0
LINE
  8
0
 10
-1.89999
 20
-167.1
 11
-1.89999
 21
-158.9
  0
LINE
  8
0
 10
-1.89999
 20
-158.9
 11
-2.59181
 21
-158.9
  0
LINE
  8
0
 10
-2.59181
 20
-158.9
 11
-3.19174
 21
-158.8
  0
LINE
  8
0
 10
-3.19174
 20
-158.8
 11
-3.80827
 21
-158.8
  0
LINE
  8
0
 10
-3.80827
 20
-158.8
 11
-4.4082
 21
-158.9
  0
LINE
  8
0
 10
-4.4082
 20
-158.9
 11
-4.89999
 21
-158.9
  0
LINE
  8
0
 10
-4.89999
 20
-158.9
 11
-4.89999
 21
-151.1
  0
LINE
  8
0
 10
-4.89999
 20
-151.1
 11
-4.4082
 21
-151.1
  0
LINE
  8
0
 10
-4.4082
 20
-151.1
 11
-3.80827
 21
-151.2
  0
LINE
  8
0
 10
-3.80827
 20
-151.2
 11
-3.19174
 21
-151.2
  0
LINE
  8
0
 10
-3.19174
 20
-151.2
 11
-2.59181
 21
-151.1
  0
LINE
  8
0
 10
-2.59181
 20
-151.1
 11
-1.89999
 21
-151.1
  0
LINE
  8
0
 10
-1.89999
 20
-151.1
 11
-1.89999
 21
-142.9
  0
LINE
  8
0
 10
-1.89999
 20
-142.9
 11
-2.59181
 21
-142.9
  0
LINE
  8
0
 10
-2.59181
 20
-142.9
 11
-3.19174
 21
-142.8
  0
LINE
  8
0
 10
-3.19174
 20
-142.8
 11
-3.80827
 21
-142.8
  0
LINE
  8
0
 10
-3.80827
 20
-142.8
 11
-4.4082
 21
-142.9
  0
LINE
  8
0
 10
-4.4082
 20
-142.9
 11
-4.89999
 21
-142.9
  0
LINE
  8
0
 10
-4.89999
 20
-142.9
 11
-4.89999
 21
-135.1
  0
LINE
  8
0
 10
-4.89999
 20
-135.1
 11
-4.4082
 21
-135.1
  0
LINE
  8
0
 10
-4.4082
 20
-135.1
 11
-3.80827
 21
-135.2
  0
LINE
  8
0
 10
-3.80827
 20
-135.2
 11
-3.19174
 21
-135.2
  0
LINE
  8
0
 10
-3.19174
 20
-135.2
 11
-2.59181
 21
-135.1
  0
LINE
  8
0
 10
-2.59181
 20
-135.1
 11
-1.89999
 21
-135.1
  0
LINE
  8
0
 10
-1.89999
 20
-135.1
 11
-1.89999
 21
-126.9
  0
LINE
  8
0
 10
-1.89999
 20
-126.9
 11
-2.59181
 21
-126.9
  0
LINE
  8
0
 10
-2.59181
 20
-126.9
 11
-3.19174
 21
-126.8
  0
LINE
  8
0
 10
-3.19174
 20
-126.8
 11
-3.80827
 21
-126.8
  0
LINE
  8
0
 10
-3.80827
 20
-126.8
 11
-4.4082
 21
-126.9
  0
LINE
  8
0
 10
-4.4082
 20
-126.9
 11
-4.89999
 21
-126.9
  0
LINE
  8
0
 10
-4.89999
 20
-126.9
 11
-4.89999
 21
-119.1
  0
LINE
  8
0
 10
-4.89999
 20
-119.1
 11
-4.4082
 21
-119.1
  0
LINE
  8
0
 10
-4.4082
 20
-119.1
 11
-3.80827
 21
-119.2
  0
LINE
  8
0
 10
-3.80827
 20
-119.2
 11
-3.19174
 21
-119.2
  0
LINE
  8
0
 10
-3.19174
 20
-119.2
 11
-2.59181
 21
-119.1
  0
LINE
  8
0
 10
-2.59181
 20
-119.1
 11
-1.89999
 21
-119.1
  0
LINE
  8
0
 10
-1.89999
 20
-119.1
 11
-1.89999
 21
-110.9
  0
LINE
  8
0
 10
-1.89999
 20
-110.9
 11
-2.59181
 21
-110.9
  0
LINE
  8
0
 10
-2.59181
 20
-110.9
 11
-3.19174
 21
-110.8
  0
LINE
  8
0
 10
-3.19174
 20
-110.8
 11
-3.80827
 21
-110.8
  0
LINE
  8
0
 10
-3.80827
 20
-110.8
 11
-4.4082
 21
-110.9
  0
LINE
  8
0
 10
-4.4082
 20
-110.9
 11
-4.89999
 21
-110.9
  0
LINE
  8
0
 10
-4.89999
 20
-110.9
 11
-4.89999
 21
-103.1
  0
LINE
  8
0
 10
-4.89999
 20
-103.1
 11
-4.4082
 21
-103.1
  0
LINE
  8
0
 10
-4.4082
 20
-103.1
 11
-3.80827
 21
-103.2
  0
LINE
  8
0
 10
-3.80827
 20
-103.2
 11
-3.19174
 21
-103.2
  0
LINE
  8
0
 10
-3.19174
 20
-103.2
 11
-2.59181
 21
-103.1
  0
LINE
  8
0
 10
-2.59181
 20
-103.1
 11
-1.89999
 21
-103.1
  0
LINE
  8
0
 10
-1.89999
 20
-103.1
 11
-1.89999
 21
-94.9
  0
LINE
  8
0
 10
-1.89999
 20
-94.9
 11
-2.59181
 21
-94.9
  0
LINE
  8
0
 10
-2.59181
 20
-94.9
 11
-3.19174
 21
-94.8
  0
LINE
  8
0
 10
-3.19174
 20
-94.8
 11
-3.80827
 21
-94.8
  0
LINE
  8
0
 10
-3.80827
 20
-94.8
 11
-4.4082
 21
-94.9
  0
LINE
  8
0
 10
-4.4082
 20
-94.9
 11
-4.89999
 21
-94.9
  0
LINE
  8
0
 10
-4.89999
 20
-94.9
 11
-4.89999
 21
-87.1
  0
LINE
  8
0
 10
-4.89999
 20
-87.1
 11
-4.4082
 21
-87.1
  0
LINE
  8
0
 10
-4.4082
 20
-87.1
 11
-3.80827
 21
-87.2
  0
LINE
  8
0
 10
-3.80827
 20
-87.2
 11
-3.19174
 21
-87.2
  0
LINE
  8
0
 10
-3.19174
 20
-87.2
 11
-2.59181
 21
-87.1
  0
LINE
  8
0
 10
-2.59181
 20
-87.1
 11
-1.89999
 21
-87.1
  0
LINE
  8
0
 10
-1.89999
 20
-87.1
 11
-1.89999
 21
-78.9
  0
LINE
  8
0
 10
-1.89999
 20
-78.9
 11
-2.59181
 21
-78.9
  0
LINE
  8
0
 10
-2.59181
 20
-78.9
 11
-3.19174
 21
-78.8
  0
LINE
  8
0
 10
-3.19174
 20
-78.8
 11
-3.80827
 21
-78.8
  0
LINE
  8
0
 10
-3.80827
 20
-78.8
 11
-4.4082
 21
-78.9
  0
LINE
  8
0
 10
-4.4082
 20
-78.9
 11
-4.89999
 21
-78.9
  0
LINE
  8
0
 10
-4.89999
 20
-78.9
 11
-4.89999
 21
-71.1
  0
LINE
  8
0
 10
-4.89999
 20
-71.1
 11
-4.4082
 21
-71.1
  0
LINE
  8
0
 10
-4.4082
 20
-71.1
 11
-3.80827
 21
-71.2
  0
LINE
  8
0
 10
-3.80827
 20
-71.2
 11
-3.19174
 21
-71.2
  0
LINE
  8
0
 10
-3.19174
 20
-71.2
 11
-2.59181
 21
-71.1
  0
LINE
  8
0
 10
-2.59181
 20
-71.1
 11
-1.89999
 21
-71.1
  0
LINE
  8
0
 10
-1.89999
 20
-71.1
 11
-1.89999
 21
-62.9
  0
LINE
  8
0
 10
-1.89999
 20
-62.9
 11
-2.59181
 21
-62.9
  0
LINE
  8
0
 10
-2.59181
 20
-62.9
 11
-3.19174
 21
-62.8
  0
LINE
  8
0
 10
-3.19174
 20
-62.8
 11
-3.80827
 21
-62.8
  0
LINE
  8
0
 10
-3.80827
 20
-62.8
 11
-4.4082
 21
-62.9
  0
LINE
  8
0
 10
-4.4082
 20
-62.9
 11
-4.89999
 21
-62.9
  0
LINE
  8
0
 10
-4.89999
 20
-62.9
 11
-4.89999
 21
-55.1
  0
LINE
  8
0
 10
-4.89999
 20
-55.1
 11
-4.4082
 21
-55.1
  0
LINE
  8
0
 10
-4.4082
 20
-55.1
 11
-3.80827
 21
-55.2
  0
LINE
  8
0
 10
-3.80827
 20
-55.2
 11
-3.19174
 21
-55.2
  0
LINE
  8
0
 10
-3.19174
 20
-55.2
 11
-2.59181
 21
-55.1
  0
LINE
  8
0
 10
-2.59181
 20
-55.1
 11
-1.89999
 21
-55.1
  0
LINE
  8
0
 10
-1.89999
 20
-55.1
 11
-1.89999
 21
-46.9
  0
LINE
  8
0
 10
-1.89999
 20
-46.9
 11
-2.59181
 21
-46.9
  0
LINE
  8
0
 10
-2.59181
 20
-46.9
 11
-3.19174
 21
-46.8
  0
LINE
  8
0
 10
-3.19174
 20
-46.8
 11
-3.80827
 21
-46.8
  0
LINE
  8
0
 10
-3.80827
 20
-46.8
 11
-4.4082
 21
-46.9
  0
LINE
  8
0
 10
-4.4082
 20
-46.9
 11
-4.89999
 21
-46.9
  0
LINE
  8
0
 10
-4.89999
 20
-46.9
 11
-4.89999
 21
-39.1
  0
LINE
  8
0
 10
-4.89999
 20
-39.1
 11
-4.4082
 21
-39.1
  0
LINE
  8
0
 10
-4.4082
 20
-39.1
 11
-3.80827
 21
-39.2
  0
LINE
  8
0
 10
-3.80827
 20
-39.2
 11
-3.19174
 21
-39.2
  0
LINE
  8
0
 10
-3.19174
 20
-39.2
 11
-2.59181
 21
-39.1
  0
LINE
  8
0
 10
-2.59181
 20
-39.1
 11
-1.89999
 21
-39.1
  0
LINE
  8
0
 10
-1.89999
 20
-39.1
 11
-1.89999
 21
-30.9
  0
LINE
  8
0
 10
-1.89999
 20
-30.9
 11
-2.59181
 21
-30.9
  0
LINE
  8
0
 10
-2.59181
 20
-30.9
 11
-3.19174
 21
-30.8
  0
LINE
  8
0
 10
-3.19174
 20
-30.8
 11
-3.80827
 21
-30.8
  0
LINE
  8
0
 10
-3.80827
 20
-30.8
 11
-4.4082
 21
-30.9
  0
LINE
  8
0
 10
-4.4082
 20
-30.9
 11
-4.89999
 21
-30.9
  0
LINE
  8
0
 10
-4.89999
 20
-30.9
 11
-4.89999
 21
-23.1
  0
LINE
  8
0
 10
-4.89999
 20
-23.1
 11
-4.4082
 21
-23.1
  0
LINE
  8
0
 10
-4.4082
 20
-23.1
 11
-3.80827
 21
-23.2
  0
LINE
  8
0
 10
-3.80827
 20
-23.2
 11
-3.19174
 21
-23.2
  0
LINE
  8
0
 10
-3.19174
 20
-23.2
 11
-2.59181
 21
-23.1
  0
LINE
  8
0
 10
-2.59181
 20
-23.1
 11
-1.89999
 21
-23.1
  0
LINE
  8
0
 10
-1.89999
 20
-23.1
 11
-1.89999
 21
-14.9
  0
LINE
  8
0
 10
-1.89999
 20
-14.9
 11
-2.59181
 21
-14.9
  0
LINE
  8
0
 10
-2.59181
 20
-14.9
 11
-3.19174
 21
-14.8
  0
LINE
  8
0
 10
-3.19174
 20
-14.8
 11
-3.80827
 21
-14.8
  0
LINE
  8
0
 10
-3.80827
 20
-14.8
 11
-4.4082
 21
-14.9
  0
LINE
  8
0
 10
-4.4082
 20
-14.9
 11
-4.89999
 21
-14.9
  0
LINE
  8
0
 10
-4.89999
 20
-14.9
 11
-4.89999
 21
-4.89999
  0
LINE
  8
0
 10
-4.89999
 20
-4.89999
 11
-13.9
 21
-4.89999
  0
LINE
  8
0
 10
-13.9
 20
-4.89999
 11
-13.9
 21
-4.4082
  0
LINE
  8
0
 10
-13.9
 20
-4.4082
 11
-13.8
 21
-3.80827
  0
LINE
  8
0
 10
-13.8
 20
-3.80827
 11
-13.8
 21
-3.19174
  0
LINE
  8
0
 10
-13.8
 20
-3.19174
 11
-13.9
 21
-2.59181
  0
LINE
  8
0
 10
-13.9
 20
-2.59181
 11
-13.9
 21
-1.89999
  0
LINE
  8
0
 10
-13.9
 20
-1.89999
 11
-22.1
 21
-1.89999
  0
LINE
  8
0
 10
-22.1
 20
-1.89999
 11
-22.1
 21
-2.59181
  0
LINE
  8
0
 10
-22.1
 20
-2.59181
 11
-22.2
 21
-3.19174
  0
LINE
  8
0
 10
-22.2
 20
-3.19174
 11
-22.2
 21
-3.80827
  0
LINE
  8
0
 10
-22.2
 20
-3.80827
 11
-22.1
 21
-4.4082
  0
LINE
  8
0
 10
-22.1
 20
-4.4082
 11
-22.1
 21
-4.89999
  0
LINE
  8
0
 10
-22.1
 20
-4.89999
 11
-29.9
 21
-4.89999
  0
LINE
  8
0
 10
-29.9
 20
-4.89999
 11
-29.9
 21
-4.4082
  0
LINE
  8
0
 10
-29.9
 20
-4.4082
 11
-29.8
 21
-3.80827
  0
LINE
  8
0
 10
-29.8
 20
-3.80827
 11
-29.8
 21
-3.19174
  0
LINE
  8
0
 10
-29.8
 20
-3.19174
 11
-29.9
 21
-2.59181
  0
LINE
  8
0
 10
-29.9
 20
-2.59181
 11
-29.9
 21
-1.89999
  0
LINE
  8
0
 10
-29.9
 20
-1.89999
 11
-38.1
 21
-1.89999
  0
LINE
  8
0
 10
-38.1
 20
-1.89999
 11
-38.1
 21
-2.59181
  0
LINE
  8
0
 10
-38.1
 20
-2.59181
 11
-38.2
 21
-3.19174
  0
LINE
  8
0
 10
-38.2
 20
-3.19174
 11
-38.2
 21
-3.80827
  0
LINE
  8
0
 10
-38.2
 20
-3.80827
 11
-38.1
 21
-4.4082
  0
LINE
  8
0
 10
-38.1
 20
-4.4082
 11
-38.1
 21
-4.89999
  0
LINE
  8
0
 10
-38.1
 20
-4.89999
 11
-45.9
 21
-4.89999
  0
LINE
  8
0
 10
-45.9
 20
-4.89999
 11
-45.9
 21
-4.4082
  0
LINE
  8
0
 10
-45.9
 20
-4.4082
 11
-45.8
 21
-3.80827
  0
LINE
  8
0
 10
-45.8
 20
-3.80827
 11
-45.8
 21
-3.19174
  0
LINE
  8
0
 10
-45.8
 20
-3.19174
 11
-45.9
 21
-2.59181
  0
LINE
  8
0
 10
-45.9
 20
-2.59181
 11
-45.9
 21
-1.89999
  0
LINE
  8
0
 10
-45.9
 20
-1.89999
 11
-54.1
 21
-1.89999
  0
LINE
  8
0
 10
-54.1
 20
-1.89999
 11
-54.1
 21
-2.59181
  0
LINE
  8
0
 10
-54.1
 20
-2.59181
 11
-54.2
 21
-3.19174
  0
LINE
  8
0
 10
-54.2
 20
-3.19174
 11
-54.2
 21
-3.80827
  0
LINE
  8
0
 10
-54.2
 20
-3.80827
 11
-54.1
 21
-4.4082
  0
LINE
  8
0
 10
-54.1
 20
-4.4082
 11
-54.1
 21
-4.89999
  0
LINE
  8
0
 10
-54.1
 20
-4.89999
 11
-61.9
 21
-4.89999
  0
LINE
  8
0
 10
-61.9
 20
-4.89999
 11
-61.9
 21
-4.4082
  0
LINE
  8
0
 10
-61.9
 20
-4.4082
 11
-61.8
 21
-3.80827
  0
LINE
  8
0
 10
-61.8
 20
-3.80827
 11
-61.8
 21
-3.19174
  0
LINE
  8
0
 10
-61.8
 20
-3.19174
 11
-61.9
 21
-2.59181
  0
LINE
  8
0
 10
-61.9
 20
-2.59181
 11
-61.9
 21
-1.89999
  0
LINE
  8
0
 10
-61.9
 20
-1.89999
 11
-70.1
 21
-1.89999
  0
LINE
  8
0
 10
-70.1
 20
-1.89999
 11
-70.1
 21
-2.59181
  0
LINE
  8
0
 10
-70.1
 20
-2.59181
 11
-70.2
 21
-3.19174
  0
LINE
  8
0
 10
-70.2
 20
-3.19174
 11
-70.2
 21
-3.80827
  0
LINE
  8
0
 10
-70.2
 20
-3.80827
 11
-70.1
 21
-4.4082
  0
LINE
  8
0
 10
-70.1
 20
-4.4082
 11
-70.1
 21
-4.89999
  0
LINE
  8
0
 10
-70.1
 20
-4.89999
 11
-79.1
 21
-4.89999
  0
LINE
  8
0
 10
-79.1
 20
-4.89999
 11
-79.1
 21
-14.9
  0
LINE
  8
0
 10
-79.1
 20
-14.9
 11
-82.1
 21
-14.9
  0
LINE
  8
0
 10
-82.1
 20
-14.9
 11
-82.1
 21
-23.1
  0
LINE
  8
0
 10
-82.1
 20
-23.1
 11
-79.1
 21
-23.1
  0
LINE
  8
0
 10
-79.1
 20
-23.1
 11
-79.1
 21
-30.9
  0
LINE
  8
0
 10
-79.1
 20
-30.9
 11
-82.1
 21
-30.9
  0
LINE
  8
0
 10
-82.1
 20
-30.9
 11
-82.1
 21
-39.1
  0
LINE
  8
0
 10
-82.1
 20
-39.1
 11
-79.1
 21
-39.1
  0
LINE
  8
0
 10
-79.1
 20
-39.1
 11
-79.1
 21
-46.9
  0
LINE
  8
0
 10
-79.1
 20
-46.9
 11
-82.1
 21
-46.9
  0
LINE
  8
0
 10
-82.1
 20
-46.9
 11
-82.1
 21
-55.1
  0
LINE
  8
0
 10
-82.1
 20
-55.1
 11
-79.1
 21
-55.1
  0
LINE
  8
0
 10
-79.1
 20
-55.1
 11
-79.1
 21
-62.9
  0
LINE
  8
0
 10
-79.1
 20
-62.9
 11
-82.1
 21
-62.9
  0
LINE
  8
0
 10
-82.1
 20
-62.9
 11
-82.1
 21
-71.1
  0
LINE
  8
0
 10
-82.1
 20
-71.1
 11
-79.1
 21
-71.1
  0
LINE
  8
0
 10
-79.1
 20
-71.1
 11
-79.1
 21
-78.9
  0
LINE
  8
0
 10
-79.1
 20
-78.9
 11
-82.1
 21
-78.9
  0
LINE
  8
0
 10
-82.1
 20
-78.9
 11
-82.1
 21
-87.1
  0
LINE
  8
0
 10
-82.1
 20
-87.1
 11
-79.1
 21
-87.1
  0
LINE
  8
0
 10
-79.1
 20
-87.1
 11
-79.1
 21
-94.9
  0
LINE
  8
0
 10
-79.1
 20
-94.9
 11
-82.1
 21
-94.9
  0
LINE
  8
0
 10
-82.1
 20
-94.9
 11
-82.1
 21
-103.1
  0
LINE
  8
0
 10
-82.1
 20
-103.1
 11
-79.1
 21
-103.1
  0
LINE
  8
0
 10
-79.1
 20
-103.1
 11
-79.1
 21
-110.9
  0
LINE
  8
0
 10
-79.1
 20
-110.9
 11
-82.1
 21
-110.9
  0
LINE
  8
0
 10
-82.1
 20
-110.9
 11
-82.1
 21
-119.1
  0
LINE
  8
0
 10
-82.1
 20
-119.1
 11
-79.1
 21
-119.1
  0
LINE
  8
0
 10
-79.1
 20
-119.1
 11
-79.1
 21
-126.9
  0
LINE
  8
0
 10
-79.1
 20
-126.9
 11
-82.1
 21
-126.9
  0
LINE
  8
0
 10
-82.1
 20
-126.9
 11
-82.1
 21
-135.1
  0
LINE
  8
0
 10
-82.1
 20
-135.1
 11
-79.1
 21
-135.1
  0
LINE
  8
0
 10
-79.1
 20
-135.1
 11
-79.1
 21
-142.9
  0
LINE
  8
0
 10
-79.1
 20
-142.9
 11
-82.1
 21
-142.9
  0
LINE
  8
0
 10
-82.1
 20
-142.9
 11
-82.1
 21
-151.1
  0
LINE
  8
0
 10
-82.1
 20
-151.1
 11
-79.1
 21
-151.1
  0
LINE
  8
0
 10
-79.1
 20
-151.1
 11
-79.1
 21
-158.9
  0
LINE
  8
0
 10
-79.1
 20
-158.9
 11
-82.1
 21
-158.9
  0
LINE
  8
0
 10
-82.1
 20
-158.9
 11
-82.1
 21
-167.1
  0
LINE
  8
0
 10
-82.1
 20
-167.1
 11
-79.1
 21
-167.1
  0
LINE
  8
0
 10
-79.1
 20
-167.1
 11
-79.1
 21
-174.9
  0
LINE
  8
0
 10
-79.1
 20
-174.9
 11
-82.1
 21
-174.9
  0
LINE
  8
0
 10
-82.1
 20
-174.9
 11
-82.1
 21
-183.1
  0
LINE
  8
0
 10
-82.1
 20
-183.1
 11
-79.1
 21
-183.1
  0
LINE
  8
0
 10
-79.1
 20
-183.1
 11
-79.1
 21
-190.9
  0
LINE
  8
0
 10
-79.1
 20
-190.9
 11
-82.1
 21
-190.9
  0
LINE
  8
0
 10
-82.1
 20
-190.9
 11
-82.1
 21
-199.1
  0
LINE
  8
0
 10
-82.1
 20
-199.1
 11
-79.1
 21
-199.1
  0
LINE
  8
0
 10
-79.1
 20
-199.1
 11
-79.1
 21
-209.1
  0
LINE
  8
0
 10
-79.1
 20
-209.1
 11
-70.1
 21
-209.1
  0
LINE
  8
0
 10
-70.1
 20
-209.1
 11
-70.1
 21
-209.592
  0
LINE
  8
0
 10
-70.1
 20
-209.592
 11
-70.2
 21
-210.192
  0
LINE
  8
0
 10
-70.2
 20
-210.192
 11
-70.2
 21
-210.808
  0
LINE
  8
0
 10
-70.2
 20
-210.808
 11
-70.1
 21
-211.408
  0
LINE
  8
0
 10
-70.1
 20
-211.408
 11
-70.1
 21
-212.1
  0
LINE
  8
0
 10
-70.1
 20
-212.1
 11
-61.9
 21
-212.1
  0
LINE
  8
0
 10
-61.9
 20
-212.1
 11
-61.9
 21
-211.408
  0
LINE
  8
0
 10
184.491
 20
-198.9
 11
180.824
 21
-198.9
  0
LINE
  8
0
 10
180.824
 20
-198.9
 11
180.824
 21
-191.1
  0
LINE
  8
0
 10
180.824
 20
-191.1
 11
184.491
 21
-191.1
  0
LINE
  8
0
 10
184.491
 20
-191.1
 11
184.491
 21
-182.9
  0
LINE
  8
0
 10
184.491
 20
-182.9
 11
180.824
 21
-182.9
  0
LINE
  8
0
 10
180.824
 20
-182.9
 11
180.824
 21
-175.1
  0
LINE
  8
0
 10
180.824
 20
-175.1
 11
184.491
 21
-175.1
  0
LINE
  8
0
 10
184.491
 20
-175.1
 11
184.491
 21
-166.9
  0
LINE
  8
0
 10
184.491
 20
-166.9
 11
180.824
 21
-166.9
  0
LINE
  8
0
 10
180.824
 20
-166.9
 11
180.824
 21
-159.1
  0
LINE
  8
0
 10
180.824
 20
-159.1
 11
184.491
 21
-159.1
  0
LINE
  8
0
 10
184.491
 20
-159.1
 11
184.491
 21
-150.9
  0
LINE
  8
0
 10
184.491
 20
-150.9
 11
180.824
 21
-150.9
  0
LINE
  8
0
 10
180.824
 20
-150.9
 11
180.824
 21
-143.1
  0
LINE
  8
0
 10
180.824
 20
-143.1
 11
184.491
 21
-143.1
  0
LINE
  8
0
 10
184.491
 20
-143.1
 11
184.491
 21
-134.9
  0
LINE
  8
0
 10
184.491
 20
-134.9
 11
180.824
 21
-134.9
  0
LINE
  8
0
 10
180.824
 20
-134.9
 11
180.824
 21
-127.1
  0
LINE
  8
0
 10
180.824
 20
-127.1
 11
184.491
 21
-127.1
  0
LINE
  8
0
 10
184.491
 20
-127.1
 11
184.491
 21
-118.9
  0
LINE
  8
0
 10
184.491
 20
-118.9
 11
180.824
 21
-118.9
  0
LINE
  8
0
 10
180.824
 20
-118.9
 11
180.824
 21
-111.1
  0
LINE
  8
0
 10
180.824
 20
-111.1
 11
184.491
 21
-111.1
  0
LINE
  8
0
 10
184.491
 20
-111.1
 11
184.491
 21
-102.9
  0
LINE
  8
0
 10
184.491
 20
-102.9
 11
180.824
 21
-102.9
  0
LINE
  8
0
 10
180.824
 20
-102.9
 11
180.824
 21
-95.1
  0
LINE
  8
0
 10
180.824
 20
-95.1
 11
184.491
 21
-95.1
  0
LINE
  8
0
 10
184.491
 20
-95.1
 11
184.491
 21
-86.9
  0
LINE
  8
0
 10
184.491
 20
-86.9
 11
180.824
 21
-86.9
  0
LINE
  8
0
 10
180.824
 20
-86.9
 11
180.824
 21
-79.1
  0
LINE
  8
0
 10
180.824
 20
-79.1
 11
184.491
 21
-79.1
  0
LINE
  8
0
 10
184.491
 20
-79.1
 11
184.491
 21
-70.9
  0
LINE
  8
0
 10
184.491
 20
-70.9
 11
180.824
 21
-70.9
  0
LINE
  8
0
 10
180.824
 20
-70.9
 11
180.824
 21
-63.1
  0
LINE
  8
0
 10
180.824
 20
-63.1
 11
184.491
 21
-63.1
  0
LINE
  8
0
 10
184.491
 20
-63.1
 11
184.491
 21
-54.9
  0
LINE
  8
0
 10
184.491
 20
-54.9
 11
180.824
 21
-54.9
  0
LINE
  8
0
 10
180.824
 20
-54.9
 11
180.824
 21
-47.1
  0
LINE
  8
0
 10
180.824
 20
-47.1
 11
184.491
 21
-47.1
  0
LINE
  8
0
 10
184.491
 20
-47.1
 11
184.491
 21
-38.9
  0
LINE
  8
0
 10
184.491
 20
-38.9
 11
180.824
 21
-38.9
  0
LINE
  8
0
 10
180.824
 20
-38.9
 11
180.824
 21
-31.1
  0
LINE
  8
0
 10
180.824
 20
-31.1
 11
184.491
 21
-31.1
  0
LINE
  8
0
 10
184.491
 20
-31.1
 11
184.491
 21
-22.9
  0
LINE
  8
0
 10
184.491
 20
-22.9
 11
180.824
 21
-22.9
  0
LINE
  8
0
 10
180.824
 20
-22.9
 11
180.824
 21
-15.1
  0
LINE
  8
0
 10
180.824
 20
-15.1
 11
184.491
 21
-15.1
  0
LINE
  8
0
 10
184.491
 20
-15.1
 11
184.491
 21
-1.89999
  0
LINE
  8
0
 10
184.491
 20
-1.89999
 11
-0.100006
 21
-1.89999
  0
LINE
  8
0
 10
-0.100006
 20
-1.89999
 11
-0.100006
 21
-15.1
  0
LINE
  8
0
 10
-0.100006
 20
-15.1
 11
2.89999
 21
-15.1
  0
LINE
  8
0
 10
2.89999
 20
-15.1
 11
2.89999
 21
-22.9
  0
LINE
  8
0
 10
2.89999
 20
-22.9
 11
-0.100006
 21
-22.9
  0
LINE
  8
0
 10
-0.100006
 20
-22.9
 11
-0.100006
 21
-31.1
  0
LINE
  8
0
 10
-0.100006
 20
-31.1
 11
2.89999
 21
-31.1
  0
LINE
  8
0
 10
2.89999
 20
-31.1
 11
2.89999
 21
-38.9
  0
LINE
  8
0
 10
2.89999
 20
-38.9
 11
-0.100006
 21
-38.9
  0
LINE
  8
0
 10
-0.100006
 20
-38.9
 11
-0.100006
 21
-47.1
  0
LINE
  8
0
 10
-0.100006
 20
-47.1
 11
2.89999
 21
-47.1
  0
LINE
  8
0
 10
2.89999
 20
-47.1
 11
2.89999
 21
-54.9
  0
LINE
  8
0
 10
2.89999
 20
-54.9
 11
-0.100006
 21
-54.9
  0
LINE
  8
0
 10
-0.100006
 20
-54.9
 11
-0.100006
 21
-63.1
  0
LINE
  8
0
 10
-0.100006
 20
-63.1
 11
2.89999
 21
-63.1
  0
LINE
  8
0
 10
2.89999
 20
-63.1
 11
2.89999
 21
-70.9
  0
LINE
  8
0
 10
2.89999
 20
-70.9
 11
-0.100006
 21
-70.9
  0
LINE
  8
0
 10
-0.100006
 20
-70.9
 11
-0.100006
 21
-79.1
  0
LINE
  8
0
 10
-0.100006
 20
-79.1
 11
2.89999
 21
-79.1
  0
LINE
  8
0
 10
2.89999
 20
-79.1
 11
2.89999
 21
-86.9
  0
LINE
  8
0
 10
2.89999
 20
-86.9
 11
-0.100006
 21
-86.9
  0
LINE
  8
0
 10
-0.100006
 20
-86.9
 11
-0.100006
 21
-95.1
  0
LINE
  8
0
 10
-0.100006
 20
-95.1
 11
2.89999
 21
-95.1
  0
LINE
  8
0
 10
2.89999
 20
-95.1
 11
2.89999
 21
-102.9
  0
LINE
  8
0
 10
2.89999
 20
-102.9
 11
-0.100006
 21
-102.9
  0
LINE
  8
0
 10
-0.100006
 20
-102.9
 11
-0.100006
 21
-111.1
  0
LINE
  8
0
 10
-0.100006
 20
-111.1
 11
2.89999
 21
-111.1
  0
LINE
  8
0
 10
2.89999
 20
-111.1
 11
2.89999
 21
-118.9
  0
LINE
  8
0
 10
2.89999
 20
-118.9
 11
-0.100006
 21
-118.9
  0
LINE
  8
0
 10
-0.100006
 20
-118.9
 11
-0.100006
 21
-127.1
  0
LINE
  8
0
 10
-0.100006
 20
-127.1
 11
2.89999
 21
-127.1
  0
LINE
  8
0
 10
2.89999
 20
-127.1
 11
2.89999
 21
-134.9
  0
LINE
  8
0
 10
2.89999
 20
-134.9
 11
-0.100006
 21
-134.9
  0
LINE
  8
0
 10
-0.100006
 20
-134.9
 11
-0.100006
 21
-143.1
  0
LINE
  8
0
 10
-0.100006
 20
-143.1
 11
2.89999
 21
-143.1
  0
LINE
  8
0
 10
2.89999
 20
-143.1
 11
2.89999
 21
-150.9
  0
LINE
  8
0
 10
2.89999
 20
-150.9
 11
-0.100006
 21
-150.9
  0
LINE
  8
0
 10
-0.100006
 20
-150.9
 11
-0.100006
 21
-159.1
  0
LINE
  8
0
 10
-0.100006
 20
-159.1
 11
2.89999
 21
-159.1
  0
LINE
  8
0
 10
2.89999
 20
-159.1
 11
2.89999
 21
-166.9
  0
LINE
  8
0
 10
2.89999
 20
-166.9
 11
-0.100006
 21
-166.9
  0
LINE
  8
0
 10
-0.100006
 20
-166.9
 11
-0.100006
 21
-175.1
  0
LINE
  8
0
 10
-0.100006
 20
-175.1
 11
2.89999
 21
-175.1
  0
LINE
  8
0
 10
2.89999
 20
-175.1
 11
2.89999
 21
-182.9
  0
LINE
  8
0
 10
2.89999
 20
-182.9
 11
-0.100006
 21
-182.9
  0
LINE
  8
0
 10
-0.100006
 20
-182.9
 11
-0.100006
 21
-191.1
  0
LINE
  8
0
 10
-0.100006
 20
-191.1
 11
2.89999
 21
-191.1
  0
LINE
  8
0
 10
2.89999
 20
-191.1
 11
2.89999
 21
-198.9
  0
LINE
  8
0
 10
2.89999
 20
-198.9
 11
-0.100006
 21
-198.9
  0
LINE
  8
0
 10
-0.100006
 20
-198.9
 11
-0.100006
 21
-212.1
  0
LINE
  8
0
 10
-0.100006
 20
-212.1
 11
184.491
 21
-212.1
  0
LINE
  8
0
 10
184.491
 20
-212.1
 11
184.491
 21
-198.9
  0
ENDSEC
  0
SECTION
  2
OBJECTS
  0
DICTIONARY
  0
ENDSEC
  0
EOF
